<?xml version="1.0" encoding="UTF-8" standalone="no"?>
<svg
   xmlns:dc="http://purl.org/dc/elements/1.1/"
   xmlns:cc="http://creativecommons.org/ns#"
   xmlns:rdf="http://www.w3.org/1999/02/22-rdf-syntax-ns#"
   xmlns:svg="http://www.w3.org/2000/svg"
   xmlns="http://www.w3.org/2000/svg"
   xmlns:sodipodi="http://sodipodi.sourceforge.net/DTD/sodipodi-0.dtd"
   xmlns:inkscape="http://www.inkscape.org/namespaces/inkscape"
   version="1.1"
   width="614.35168"
   height="544.01709"
   id="svg4129"
   viewBox="0 0 614.35169 544.01709"
   sodipodi:docname="CapstoneCase.svg"
   inkscape:version="0.92.4 (5da689c313, 2019-01-14)">
  <metadata
     id="metadata4135">
    <rdf:RDF>
      <cc:Work
         rdf:about="">
        <dc:format>image/svg+xml</dc:format>
        <dc:type
           rdf:resource="http://purl.org/dc/dcmitype/StillImage" />
        <dc:title></dc:title>
      </cc:Work>
    </rdf:RDF>
  </metadata>
  <defs
     id="defs4133" />
  <sodipodi:namedview
     pagecolor="#ffffff"
     bordercolor="#666666"
     borderopacity="1"
     objecttolerance="10"
     gridtolerance="10"
     guidetolerance="10"
     inkscape:pageopacity="0"
     inkscape:pageshadow="2"
     inkscape:window-width="1920"
     inkscape:window-height="1001"
     id="namedview4131"
     showgrid="false"
     inkscape:zoom="1.2004578"
     inkscape:cx="394.08901"
     inkscape:cy="263.97071"
     inkscape:window-x="-9"
     inkscape:window-y="-9"
     inkscape:window-maximized="1"
     inkscape:current-layer="svg4129" />
  <path
     d="m 614.22871,178.09126 c 0,-0.17758 -0.13331,-0.31126 -0.31126,-0.31126 h -48.53391 v -6.59021 c 0,-0.41804 -0.1013,-0.82579 -0.25459,-1.18803 -0.15324,-0.36224 -0.34821,-0.68789 -0.62217,-0.96163 -0.27397,-0.27397 -0.59963,-0.49729 -0.96155,-0.65062 -0.36227,-0.15322 -0.76998,-0.22606 -1.18801,-0.22606 h -26.02065 c -0.41803,0 -0.82575,0.0732 -1.18802,0.22606 -0.36226,0.15333 -0.68792,0.37665 -0.96154,0.65062 -0.27396,0.27408 -0.49738,0.59973 -0.65062,0.96163 -0.15326,0.36224 -0.22614,0.76999 -0.22614,1.18803 V 177.78 H 421.02594 v -6.59021 c 0,-0.41804 -0.1012,-0.82579 -0.25448,-1.18803 -0.15325,-0.36224 -0.37666,-0.68789 -0.65063,-0.96163 -0.27396,-0.27397 -0.59962,-0.49729 -0.96154,-0.65062 -0.36226,-0.15322 -0.74164,-0.22606 -1.15957,-0.22606 h -26.02064 c -0.41804,0 -0.82575,0.0732 -1.18801,0.22606 -0.36227,0.15333 -0.68793,0.37665 -0.96155,0.65062 -0.27408,0.27408 -0.49738,0.59973 -0.65063,0.96163 -0.15324,0.36224 -0.22613,0.76999 -0.22613,1.18803 V 177.78 h -48.47723 c -0.17751,0 -0.31126,0.13345 -0.31126,0.31126 V 360.1551 c 0,0.17758 0.13341,0.31137 0.31126,0.31137 h 48.47723 v 6.5901 c 0,0.41803 0.10119,0.82579 0.25448,1.18803 0.15324,0.36224 0.37665,0.68801 0.65062,0.96163 0.27397,0.27396 0.59962,0.4974 0.96154,0.65062 0.36226,0.15322 0.74164,0.22617 1.15968,0.22617 h 26.02064 c 0.41793,0 0.82576,-0.0733 1.18802,-0.22617 0.36216,-0.15322 0.68781,-0.37666 0.96154,-0.65062 0.27397,-0.27397 0.49738,-0.59973 0.65064,-0.96163 0.15324,-0.36224 0.22602,-0.77 0.22602,-1.18803 v -6.5901 h 112.28431 v 6.5901 c 0,0.41803 0.10119,0.82579 0.25447,1.18803 0.15325,0.36224 0.37667,0.68801 0.65063,0.96163 0.27408,0.27396 0.59973,0.4974 0.96165,0.65062 0.36216,0.15322 0.74154,0.22617 1.15957,0.22617 h 26.02065 c 0.41803,0 0.82574,-0.0733 1.18801,-0.22617 0.36227,-0.15322 0.68792,-0.37666 0.96155,-0.65062 0.27396,-0.27397 0.49738,-0.59973 0.65062,-0.96163 0.15325,-0.36224 0.22614,-0.77 0.22614,-1.18803 v -6.5901 h 48.53391 c 0.17762,0 0.31126,-0.13344 0.31126,-0.31137 z"
     style="fill:none;stroke:#00ff00;stroke-width:0.2459067;stroke-linecap:butt;stroke-linejoin:miter;stroke-dasharray:none"
     id="path3713"
     inkscape:connector-curvature="0" />
  <path
     d="m 512.00949,145.16499 h 32.07316 v 9.7006 h -32.07316 z"
     style="fill:none;stroke:#ff0000;stroke-width:0.2459067;stroke-linecap:butt;stroke-linejoin:miter;stroke-dasharray:none"
     id="path3862"
     inkscape:connector-curvature="0" />
  <path
     d="m 367.65268,145.16499 h 32.07317 v 9.7006 h -32.07317 z"
     style="fill:none;stroke:#ff0000;stroke-width:0.2459067;stroke-linecap:butt;stroke-linejoin:miter;stroke-dasharray:none"
     id="path3864"
     inkscape:connector-curvature="0" />
  <path
     d="M 335.60796,111.84047 H 370.679 c 0.88831,0 1.61216,0.7302 1.61216,1.62631 v 25.67811 c 0,0.89612 -0.72385,1.62632 -1.61216,1.62632 h -35.07104 c -0.88833,0 -1.58373,-0.7302 -1.58373,-1.62632 v -25.67811 c 0,-0.89611 0.6954,-1.62631 1.58373,-1.62631 z"
     style="fill:none;stroke:#ff0000;stroke-width:0.2459067;stroke-linecap:butt;stroke-linejoin:miter;stroke-dasharray:none"
     id="path3866"
     inkscape:connector-curvature="0" />
  <path
     d="m 397.12368,108.50231 c 15.93299,0 33.67582,0.0286 49.60869,0.0286 0.66264,0 1.18801,0.52964 1.18801,1.19844 v 13.46675 c 0,0.66834 -7.56789,6.47689 -8.23053,6.47655 l -35.55199,-0.0286 c -0.66264,-3.4e-4 -8.23053,-5.77962 -8.23053,-6.44796 v -13.49545 c 0,-0.67177 0.55042,-1.19832 1.21601,-1.19832 z"
     style="fill:none;stroke:#ff0000;stroke-width:0.2459067;stroke-linecap:butt;stroke-linejoin:miter;stroke-dasharray:none"
     id="path3868"
     inkscape:connector-curvature="0" />
  <path
     d="m 491.75902,102.11151 c 10.55624,0 19.11924,8.63823 19.11924,19.28709 0,10.64885 -8.563,19.28696 -19.11924,19.28696 -10.55625,0 -19.11936,-8.63811 -19.11936,-19.28696 0,-10.64886 8.56311,-19.28709 19.11936,-19.28709 z"
     style="fill:none;stroke:#ff0000;stroke-width:0.2459067;stroke-linecap:butt;stroke-linejoin:miter;stroke-dasharray:none"
     id="path3870"
     inkscape:connector-curvature="0" />
  <path
     d="m 512.00949,21.991715 h 32.07316 v 9.7006 h -32.07316 z"
     style="fill:none;stroke:#ff0000;stroke-width:0.2459067;stroke-linecap:butt;stroke-linejoin:miter;stroke-dasharray:none"
     id="path3872"
     inkscape:connector-curvature="0" />
  <path
     d="m 367.65268,21.991715 h 32.07317 v 9.7006 h -32.07317 z"
     style="fill:none;stroke:#ff0000;stroke-width:0.2459067;stroke-linecap:butt;stroke-linejoin:miter;stroke-dasharray:none"
     id="path3874"
     inkscape:connector-curvature="0" />
  <path
     d="m 592.92862,54.317214 h 6.58992 c 0.41803,0 0.79719,-0.07387 1.15967,-0.228116 0.36204,-0.154593 0.68792,-0.379851 0.96132,-0.656334 0.27408,-0.276141 0.49738,-0.60488 0.65063,-0.969866 0.15325,-0.365558 0.25447,-0.776853 0.25447,-1.198553 V 28.353928 c 2.5965,0 4.69494,-2.170362 4.69494,-4.821656 0,-2.651751 -2.09844,-4.793528 -4.69494,-4.793528 v 3.224042 h -9.61601 v -3.395215 c 0,-0.421701 -0.10119,-0.832996 -0.25447,-1.198211 -0.15326,-0.365672 -0.37689,-0.693953 -0.65063,-0.970094 -0.27408,-0.276484 -0.59996,-0.501856 -0.96165,-0.656449 -0.36216,-0.154593 -0.74166,-0.228116 -1.15969,-0.228116 H 321.86341 l -10e-4,3.43e-4 c -0.41792,0 -0.82575,0.07387 -1.18778,0.228116 -0.36216,0.154593 -0.68793,0.379851 -0.96166,0.656335 -0.27374,0.276483 -0.49738,0.604879 -0.65074,0.970094 -0.15326,0.365329 -0.2258,0.776624 -0.2258,1.198325 v 3.423801 h -9.61634 v -3.252628 c -2.59617,0 -4.69495,2.170363 -4.69495,4.821656 0,2.651637 2.09878,4.793528 4.69495,4.793528 v 22.939231 c 0,0.421701 0.0732,0.804181 0.22612,1.169739 0.15326,0.365329 0.37655,0.693954 0.65063,0.969752 0.27374,0.276483 0.59962,0.501855 0.96143,0.656448 0.36238,0.154593 0.7701,0.256702 1.18813,0.256702 h 6.59003"
     style="fill:none;stroke:#00ff00;stroke-width:0.2459067;stroke-linecap:butt;stroke-linejoin:miter;stroke-dasharray:none"
     id="path3876"
     inkscape:connector-curvature="0" />
  <path
     d="m 318.83607,122.51116 h -6.59003 c -0.41804,0 -0.82575,0.0739 -1.18813,0.22812 -0.36215,0.15436 -0.68792,0.37996 -0.96143,0.6561 -0.27408,0.27649 -0.49738,0.60511 -0.65063,0.9701 -0.15324,0.36556 -0.22613,0.77685 -0.22613,1.19855 v 19.57226 c 0,0 6.06046,-0.10342 11.14351,0.57081 5.08339,0.67382 16.34003,4.24147 22.00433,4.99282 5.66396,0.75068 14.84845,0.7987 14.84845,0.7987 0.88265,0 1.58407,0.76039 1.58407,1.68349 0,0.92309 -0.70142,1.65501 -1.58407,1.65501 0,0 -9.27709,-0.0451 -14.96158,-0.79903 -5.68459,-0.75387 -16.9393,-4.32118 -22.00432,-4.99284 -5.06503,-0.67188 -11.03039,-0.57081 -11.03039,-0.57081 -2.59616,0 -4.69494,2.17003 -4.69494,4.82178 0,2.65164 2.09878,4.79341 4.69494,4.79341 v -3.25251 h 9.61635 v 3.45215 c 0,0.42171 0.0732,0.833 0.2258,1.19868 0.15336,0.36532 0.377,0.69395 0.65073,0.96975 0.27408,0.27648 0.59985,0.47327 0.96166,0.62786 0.36204,0.1546 0.76987,0.2567 1.18779,0.2567 1.16671,0 2.05798,-1.39796 3.22469,-1.39796 1.16636,0 2.0294,1.39796 3.19566,1.39796 1.16671,0 2.05797,-1.39796 3.22434,-1.39796 1.16671,0 2.02964,1.39796 3.19601,1.39796 1.1667,0 2.05797,-1.39796 3.22434,-1.39796 1.16659,0 2.05797,1.39796 3.22457,1.39796 1.16636,0 2.02941,-1.39796 3.19578,-1.39796 1.16659,0 2.05797,1.39796 3.22422,1.39796 h 216.62068 c 1.16626,0 2.0293,-1.39796 3.19601,-1.39796 1.16625,0 2.05763,1.39796 3.22422,1.39796 1.16637,0 2.05799,-1.39796 3.22436,-1.39796 1.16636,0 2.0294,1.39796 3.19599,1.39796 1.16637,0 2.05798,-1.39796 3.22434,-1.39796 1.16637,0 2.02942,1.39796 3.19601,1.39796 1.16637,0 2.05763,-1.39796 3.22434,-1.39796 1.16637,0 2.05798,1.39796 3.22434,1.39796 0.41793,0 0.79742,-0.1021 1.15957,-0.2567 0.36204,-0.15459 0.68792,-0.35138 0.96166,-0.62786 0.27374,-0.27649 0.49738,-0.60477 0.65063,-0.96975 0.15324,-0.36568 0.25446,-0.77697 0.25446,-1.19868 v -3.45215 h 9.61602 v 3.22369 c 2.59649,0 4.69494,-2.14177 4.69494,-4.79318 0,-2.65163 -2.09845,-4.7934 -4.69494,-4.7934 0,0 -5.96537,-0.12968 -11.03039,0.54221 -5.0648,0.67154 -16.34773,4.23885 -22.03255,4.99283 -5.6846,0.75387 -14.93335,0.82751 -14.93335,0.82751 -0.88266,0 -1.61229,-0.76039 -1.61229,-1.68349 0,-0.92321 0.72963,-1.65501 1.61229,-1.65501 0,0 9.15626,-0.0765 14.82057,-0.82752 5.66396,-0.751 16.9495,-4.29007 22.03254,-4.96423 3.81229,-0.50563 8.15222,-0.59608 10.09742,-0.5994 0.64802,-9.1e-4 1.0461,0.0289 1.0461,0.0289 v -19.60116 c 0,-0.42171 -0.10119,-0.80441 -0.25447,-1.16974 -0.15325,-0.36533 -0.37655,-0.69396 -0.65063,-0.9701 -0.27374,-0.27614 -0.5995,-0.50174 -0.96132,-0.65633 -0.36248,-0.1546 -0.74164,-0.2567 -1.15967,-0.2567 h -6.58992"
     style="fill:none;stroke:#00ff00;stroke-width:0.2459067;stroke-linecap:butt;stroke-linejoin:miter;stroke-dasharray:none"
     id="path3878"
     inkscape:connector-curvature="0" />
  <path
     d="m 338.33288,100.891 v 3.00107 h 1.34705 c 0.49839,0 0.8839,-0.13001 1.15628,-0.3906 0.27226,-0.26013 0.40839,-0.63106 0.40839,-1.11279 0,-0.47796 -0.13613,-0.84718 -0.40839,-1.10742 -0.27238,-0.26014 -0.65754,-0.3906 -1.15628,-0.3906 h -1.34705 m -1.07104,-0.88754 h 2.41809 c 0.88741,0 1.55742,0.2033 2.01002,0.6098 0.456,0.40306 0.68418,0.99513 0.68418,1.7761 0,0.78806 -0.22818,1.38368 -0.68418,1.78674 -0.4526,0.40306 -1.12227,0.60454 -2.01002,0.60454 h -1.34705 v 3.20986 h -1.07138 v -7.98704 z m 0,0 z"
     style="fill:#000000;fill-rule:evenodd;stroke:#000000;stroke-width:0.2459067;stroke-linecap:butt;stroke-linejoin:miter;stroke-dasharray:none"
     id="path3880"
     inkscape:connector-curvature="0" />
  <path
     d="m 345.69391,102.68849 c -0.52345,0 -0.93695,0.20673 -1.24106,0.62043 -0.30412,0.41027 -0.45601,0.97387 -0.45601,1.69058 0,0.7167 0.15019,1.28225 0.45091,1.6956 0.30412,0.41027 0.71932,0.61529 1.24616,0.61529 0.5196,0 0.9314,-0.20674 1.23551,-0.62043 0.30412,-0.4137 0.45601,-0.9773 0.45601,-1.69046 0,-0.70985 -0.15189,-1.27162 -0.45601,-1.68509 -0.30411,-0.41713 -0.71591,-0.62592 -1.23551,-0.62592 z m 0,-0.83437 c 0.84831,0 1.51504,0.27809 1.99937,0.83437 0.48435,0.55628 0.72657,1.32685 0.72657,2.31101 0,0.98061 -0.24222,1.75117 -0.72657,2.31089 -0.48433,0.55628 -1.15071,0.83436 -1.99937,0.83436 -0.85216,0 -1.52013,-0.27808 -2.00459,-0.83436 -0.48093,-0.56006 -0.72101,-1.33028 -0.72101,-2.31089 0,-0.98451 0.24042,-1.75473 0.72101,-2.31101 0.48446,-0.55628 1.15243,-0.83437 2.00459,-0.83437 z"
     style="fill:#000000;fill-rule:evenodd;stroke:#000000;stroke-width:0.2459067;stroke-linecap:butt;stroke-linejoin:miter;stroke-dasharray:none"
     id="path3882"
     inkscape:connector-curvature="0" />
  <path
     d="m 349.46415,101.99831 h 0.97594 l 1.21986,4.67575 1.21432,-4.67575 h 1.15072 l 1.21987,4.67575 1.21432,-4.67575 h 0.97593 l -1.55368,5.99151 h -1.15072 l -1.27801,-4.91108 -1.28347,4.91108 h -1.15072 l -1.55369,-5.99151 z m 0,0 z"
     style="fill:#000000;fill-rule:evenodd;stroke:#000000;stroke-width:0.2459067;stroke-linecap:butt;stroke-linejoin:miter;stroke-dasharray:none"
     id="path3884"
     inkscape:connector-curvature="0" />
  <path
     d="m 364.0001,104.74828 v 0.48128 h -4.48626 c 0.0423,0.67771 0.24392,1.19466 0.60449,1.55153 0.36431,0.35298 0.8695,0.52964 1.51673,0.52964 0.37484,0 0.73712,-0.0462 1.08702,-0.13904 0.35377,-0.0928 0.70367,-0.23189 1.05019,-0.41724 v 0.93098 c -0.34992,0.1498 -0.70878,0.26402 -1.07649,0.34235 -0.3677,0.0783 -0.74062,0.11766 -1.11887,0.11766 -0.9476,0 -1.69877,-0.27808 -2.25395,-0.83437 -0.55145,-0.55628 -0.82712,-1.30889 -0.82712,-2.25749 0,-0.98061 0.26172,-1.75804 0.78472,-2.33227 0.52673,-0.57767 1.23551,-0.8665 2.12667,-0.8665 0.799,0 1.43012,0.26059 1.89328,0.78085 0.46666,0.51729 0.69993,1.22165 0.69993,2.11331 z m -0.97594,-0.28883 c -0.006,-0.53868 -0.15733,-0.96827 -0.45079,-1.28923 -0.29018,-0.32096 -0.67533,-0.48139 -1.15628,-0.48139 -0.54454,0 -0.98104,0.15528 -1.30976,0.4655 -0.32531,0.31021 -0.51279,0.74712 -0.56199,1.31061 z"
     style="fill:#000000;fill-rule:evenodd;stroke:#000000;stroke-width:0.2459067;stroke-linecap:butt;stroke-linejoin:miter;stroke-dasharray:none"
     id="path3886"
     inkscape:connector-curvature="0" />
  <path
     d="m 369.04325,102.91866 c -0.1095,-0.0641 -0.22988,-0.11045 -0.36057,-0.13904 -0.12729,-0.0321 -0.26852,-0.048 -0.42415,-0.048 -0.55145,0 -0.97594,0.18192 -1.2728,0.54565 -0.29357,0.36018 -0.44026,0.87919 -0.44026,1.55656 v 3.15636 h -0.98114 v -5.9914 h 0.98114 v 0.93099 c 0.20483,-0.36373 0.472,-0.63324 0.80071,-0.80784 0.32871,-0.17838 0.72827,-0.26745 1.19867,-0.26745 0.067,0 0.14123,0.005 0.22262,0.0162 0.0815,0.007 0.17139,0.0197 0.27056,0.0373 l 0.005,1.01103 z m 0,0 z"
     style="fill:#000000;fill-rule:evenodd;stroke:#000000;stroke-width:0.2459067;stroke-linecap:butt;stroke-linejoin:miter;stroke-dasharray:none"
     id="path3888"
     inkscape:connector-curvature="0" />
  <path
     d="m 408.4346,96.800574 h 1.07138 v 3.274016 h 3.89243 v -3.274016 h 1.07127 v 7.987046 h -1.07127 v -3.80377 h -3.89243 v 3.80377 h -1.07138 z"
     style="fill:#000000;fill-rule:evenodd;stroke:#000000;stroke-width:0.2459067;stroke-linecap:butt;stroke-linejoin:miter;stroke-dasharray:none"
     id="path3890"
     inkscape:connector-curvature="0" />
  <path
     d="m 417.67248,97.688456 v 6.210934 h 1.29412 c 1.09257,0 1.89123,-0.2495 2.39689,-0.74884 0.50893,-0.49934 0.76352,-1.2874 0.76352,-2.3644 0,-1.070032 -0.25459,-1.852717 -0.76352,-2.348513 -0.50566,-0.499339 -1.30466,-0.748838 -2.39689,-0.748838 h -1.29412 m -1.07126,-0.888225 h 2.2008 c 1.53452,0 2.66031,0.32268 3.37792,0.968266 0.71773,0.641812 1.07649,1.647696 1.07649,3.01731 0,1.37647 -0.36045,2.3875 -1.08192,3.0332 -0.72114,0.64559 -1.84545,0.96827 -3.37284,0.96827 h -2.2008 v -7.987046 z m 0,0 z"
     style="fill:#000000;fill-rule:evenodd;stroke:#000000;stroke-width:0.2459067;stroke-linecap:butt;stroke-linejoin:miter;stroke-dasharray:none"
     id="path3892"
     inkscape:connector-curvature="0" />
  <path
     d="m 424.95893,96.800574 h 1.59608 l 2.02068,5.435226 2.03123,-5.435226 h 1.59607 v 7.987046 h -1.04474 v -7.013292 l -2.04177,5.477992 H 428.04 l -2.04187,-5.477992 v 7.013292 h -1.03954 v -7.987046 z m 0,0 z"
     style="fill:#000000;fill-rule:evenodd;stroke:#000000;stroke-width:0.2459067;stroke-linecap:butt;stroke-linejoin:miter;stroke-dasharray:none"
     id="path3894"
     inkscape:connector-curvature="0" />
  <path
     d="m 434.33476,96.800574 h 1.07138 v 7.987046 h -1.07138 z"
     style="fill:#000000;fill-rule:evenodd;stroke:#000000;stroke-width:0.2459067;stroke-linecap:butt;stroke-linejoin:miter;stroke-dasharray:none"
     id="path3896"
     inkscape:connector-curvature="0" />
  <path
     d="m 521.52314,104.4152 v 1.13943 c -0.36045,-0.3388 -0.74607,-0.59207 -1.15616,-0.75947 -0.40671,-0.16774 -0.83981,-0.25155 -1.29921,-0.25155 -0.90511,0 -1.59813,0.2798 -2.07872,0.83985 -0.48095,0.55629 -0.72114,1.36241 -0.72114,2.41792 0,1.05219 0.24054,1.8582 0.72114,2.41792 0.48094,0.55628 1.17361,0.83436 2.07872,0.83436 0.45974,0 0.89285,-0.0838 1.29921,-0.25155 0.41009,-0.16763 0.79526,-0.4209 1.15616,-0.75947 v 1.12869 c -0.37485,0.25681 -0.77236,0.44937 -1.19311,0.57766 -0.41736,0.12841 -0.85897,0.19256 -1.32585,0.19256 -1.19857,0 -2.14242,-0.36922 -2.83204,-1.10731 -0.68928,-0.74186 -1.03409,-1.75301 -1.03409,-3.0332 0,-1.28397 0.34481,-2.295 1.03409,-3.03309 0.68928,-0.74198 1.63347,-1.11291 2.83204,-1.11291 0.4738,0 0.91914,0.0641 1.3365,0.19255 0.42075,0.12487 0.81475,0.31399 1.18246,0.56692 z m 0,0 z"
     style="fill:#000000;fill-rule:evenodd;stroke:#000000;stroke-width:0.2459067;stroke-linecap:butt;stroke-linejoin:miter;stroke-dasharray:none"
     id="path3898"
     inkscape:connector-curvature="0" />
  <path
     d="m 525.44741,106.48528 c -0.52333,0 -0.93694,0.20673 -1.24106,0.62043 -0.30411,0.41038 -0.456,0.97387 -0.456,1.69058 0,0.7167 0.15019,1.28225 0.4509,1.6956 0.30412,0.41038 0.71932,0.61529 1.24616,0.61529 0.51961,0 0.9314,-0.20674 1.23552,-0.62043 0.30411,-0.4137 0.456,-0.97719 0.456,-1.69046 0,-0.70985 -0.15189,-1.27162 -0.456,-1.68498 -0.30412,-0.41724 -0.71591,-0.62603 -1.23552,-0.62603 z m 0,-0.83437 c 0.84832,0 1.51504,0.2782 1.99939,0.83437 0.48433,0.55628 0.72657,1.32685 0.72657,2.31101 0,0.98061 -0.24224,1.75117 -0.72657,2.31089 -0.48435,0.55628 -1.15073,0.83437 -1.99939,0.83437 -0.85216,0 -1.52012,-0.27809 -2.00458,-0.83437 -0.48094,-0.56006 -0.72101,-1.33028 -0.72101,-2.31089 0,-0.98451 0.24041,-1.75473 0.72101,-2.31101 0.48446,-0.55617 1.15242,-0.83437 2.00458,-0.83437 z"
     style="fill:#000000;fill-rule:evenodd;stroke:#000000;stroke-width:0.2459067;stroke-linecap:butt;stroke-linejoin:miter;stroke-dasharray:none"
     id="path3900"
     inkscape:connector-curvature="0" />
  <path
     d="m 534.40963,106.94529 c 0.24393,-0.4424 0.53569,-0.76851 0.87506,-0.97902 0.33926,-0.21039 0.73881,-0.3157 1.19856,-0.3157 0.61877,0 1.09598,0.21954 1.43195,0.65805 0.33584,0.43519 0.50383,1.05562 0.50383,1.86163 v 3.61636 h -0.98104 v -3.58423 c 0,-0.57423 -0.10087,-1.00039 -0.30242,-1.27848 -0.20141,-0.27808 -0.50893,-0.41724 -0.92289,-0.41724 -0.50554,0 -0.9051,0.16946 -1.19867,0.50838 -0.29346,0.3388 -0.44014,0.80052 -0.44014,1.38539 v 3.38618 h -0.98115 v -3.58423 c 0,-0.57766 -0.10087,-1.00382 -0.3023,-1.27848 -0.20154,-0.27808 -0.51279,-0.41724 -0.93355,-0.41724 -0.4984,0 -0.89456,0.17118 -1.18802,0.51352 -0.29346,0.3388 -0.44025,0.79881 -0.44025,1.38025 v 3.38618 h -0.98104 v -5.9914 h 0.98104 v 0.93099 c 0.22273,-0.3675 0.48956,-0.63838 0.80082,-0.81298 0.31126,-0.17461 0.68066,-0.26231 1.10833,-0.26231 0.43129,0 0.7973,0.11046 1.09767,0.3316 0.30412,0.22126 0.52844,0.5421 0.67353,0.96312 z m 0,0 z"
     style="fill:#000000;fill-rule:evenodd;stroke:#000000;stroke-width:0.2459067;stroke-linecap:butt;stroke-linejoin:miter;stroke-dasharray:none"
     id="path3902"
     inkscape:connector-curvature="0" />
  <path
     d="m 541.31432,110.8881 v 3.17773 h -0.98104 v -8.27062 h 0.98104 v 0.90927 c 0.20494,-0.35687 0.46315,-0.62043 0.77406,-0.79161 0.31478,-0.1746 0.68928,-0.2623 1.12444,-0.2623 0.721,0 1.30635,0.28883 1.75509,0.8665 0.45261,0.57766 0.67874,1.33748 0.67874,2.27887 0,0.94163 -0.22613,1.70121 -0.67874,2.27876 -0.44909,0.57767 -1.03409,0.8665 -1.75509,0.8665 -0.43481,0 -0.80966,-0.0855 -1.12444,-0.2567 -0.31125,-0.1746 -0.56912,-0.44034 -0.77406,-0.79709 z m 3.31978,-2.09147 c 0,-0.72403 -0.14848,-1.29094 -0.44535,-1.70121 -0.29357,-0.41381 -0.69824,-0.62043 -1.21443,-0.62043 -0.51619,0 -0.92289,0.20662 -1.21975,0.62043 -0.29358,0.41027 -0.44025,0.97718 -0.44025,1.70121 0,0.72391 0.14667,1.293 0.44025,1.70636 0.29686,0.41026 0.70356,0.61528 1.21975,0.61528 0.51619,0 0.92086,-0.20502 1.21443,-0.61528 0.29687,-0.41382 0.44535,-0.98245 0.44535,-1.70636 z"
     style="fill:#000000;fill-rule:evenodd;stroke:#000000;stroke-width:0.2459067;stroke-linecap:butt;stroke-linejoin:miter;stroke-dasharray:none"
     id="path3904"
     inkscape:connector-curvature="0" />
  <path
     d="m 549.56572,106.48528 c -0.52334,0 -0.93695,0.20673 -1.24107,0.62043 -0.30412,0.41038 -0.456,0.97387 -0.456,1.69058 0,0.7167 0.15019,1.28225 0.4509,1.6956 0.30412,0.41038 0.71932,0.61529 1.24617,0.61529 0.51959,0 0.93139,-0.20674 1.23551,-0.62043 0.30412,-0.4137 0.456,-0.97719 0.456,-1.69046 0,-0.70985 -0.15188,-1.27162 -0.456,-1.68498 -0.30412,-0.41724 -0.71592,-0.62603 -1.23551,-0.62603 z m 0,-0.83437 c 0.8483,0 1.51502,0.2782 1.99937,0.83437 0.48434,0.55628 0.72657,1.32685 0.72657,2.31101 0,0.98061 -0.24223,1.75117 -0.72657,2.31089 -0.48435,0.55628 -1.15073,0.83437 -1.99937,0.83437 -0.85205,0 -1.52014,-0.27809 -2.00459,-0.83437 -0.48095,-0.56006 -0.72102,-1.33028 -0.72102,-2.31089 0,-0.98451 0.24041,-1.75473 0.72102,-2.31101 0.48445,-0.55617 1.15254,-0.83437 2.00459,-0.83437 z"
     style="fill:#000000;fill-rule:evenodd;stroke:#000000;stroke-width:0.2459067;stroke-linecap:butt;stroke-linejoin:miter;stroke-dasharray:none"
     id="path3906"
     inkscape:connector-curvature="0" />
  <path
     d="m 557.69016,105.97188 v 0.93098 c -0.27567,-0.14247 -0.56198,-0.24949 -0.85885,-0.32096 -0.29698,-0.0714 -0.60449,-0.10691 -0.92289,-0.10691 -0.48446,0 -0.84842,0.0749 -1.09258,0.22457 -0.24053,0.14979 -0.36057,0.37448 -0.36057,0.67395 0,0.22811 0.0865,0.4082 0.25992,0.54039 0.17308,0.1284 0.5214,0.25155 1.04474,0.36921 l 0.33416,0.0749 c 0.69302,0.14979 1.18427,0.36201 1.47433,0.63667 0.29347,0.27088 0.44025,0.65085 0.44025,1.13944 0,0.55628 -0.21921,0.99685 -0.65742,1.32124 -0.43481,0.32474 -1.03409,0.48688 -1.79761,0.48688 -0.31818,0 -0.65064,-0.032 -0.99714,-0.0963 -0.34311,-0.0607 -0.70538,-0.15322 -1.08714,-0.27809 v -1.01662 c 0.36057,0.18912 0.71603,0.33171 1.06595,0.42787 0.3499,0.0928 0.69641,0.13916 1.03952,0.13916 0.45974,0 0.81317,-0.0783 1.06073,-0.23532 0.24732,-0.16054 0.37122,-0.38511 0.37122,-0.67394 0,-0.26745 -0.0904,-0.47247 -0.27057,-0.61529 -0.17694,-0.14247 -0.56754,-0.27991 -1.17192,-0.41198 l -0.33937,-0.0805 c -0.60449,-0.12829 -1.04123,-0.32428 -1.30975,-0.5883 -0.26853,-0.26745 -0.40297,-0.63289 -0.40297,-1.09667 0,-0.56349 0.19803,-0.99857 0.59385,-1.30535 0.39604,-0.30679 0.95814,-0.46001 1.6863,-0.46001 0.36057,0 0.69993,0.027 1.01845,0.0804 0.31805,0.0535 0.61152,0.1339 0.88004,0.24092 z m 0,0 z"
     style="fill:#000000;fill-rule:evenodd;stroke:#000000;stroke-width:0.2459067;stroke-linecap:butt;stroke-linejoin:miter;stroke-dasharray:none"
     id="path3908"
     inkscape:connector-curvature="0" />
  <path
     d="m 559.56746,105.79521 h 0.97594 v 5.9914 h -0.97594 z m 0,-2.33238 h 0.97594 v 1.24646 h -0.97594 z"
     style="fill:#000000;fill-rule:evenodd;stroke:#000000;stroke-width:0.2459067;stroke-linecap:butt;stroke-linejoin:miter;stroke-dasharray:none"
     id="path3910"
     inkscape:connector-curvature="0" />
  <path
     d="m 563.54477,104.09401 v 1.7012 h 2.00992 v 0.76497 h -2.00992 v 3.25262 c 0,0.4886 0.0653,0.80236 0.19633,0.94174 0.13443,0.13904 0.40466,0.20879 0.81136,0.20879 h 1.00223 v 0.82362 h -1.00223 c -0.75288,0 -1.27281,-0.14075 -1.55912,-0.42273 -0.28633,-0.28528 -0.42971,-0.80223 -0.42971,-1.55142 v -3.25262 h -0.71592 v -0.76497 h 0.71592 v -1.7012 z"
     style="fill:#000000;fill-rule:evenodd;stroke:#000000;stroke-width:0.2459067;stroke-linecap:butt;stroke-linejoin:miter;stroke-dasharray:none"
     id="path3912"
     inkscape:connector-curvature="0" />
  <path
     d="m 571.9237,108.54507 v 0.48139 h -4.48627 c 0.0425,0.67772 0.24393,1.19455 0.60449,1.55142 0.36431,0.35298 0.86951,0.52964 1.51673,0.52964 0.37497,0 0.73711,-0.0462 1.08714,-0.13904 0.35365,-0.0928 0.70356,-0.23189 1.05008,-0.41724 v 0.93099 c -0.34992,0.14979 -0.70878,0.26402 -1.07649,0.34234 -0.36771,0.0783 -0.74052,0.11766 -1.11888,0.11766 -0.94749,0 -1.69877,-0.27808 -2.25395,-0.83437 -0.55134,-0.55628 -0.82711,-1.30878 -0.82711,-2.25749 0,-0.98061 0.26172,-1.75804 0.78472,-2.33227 0.52685,-0.57767 1.23563,-0.8665 2.12666,-0.8665 0.79911,0 1.43025,0.26025 1.89339,0.78097 0.46655,0.51718 0.69982,1.22153 0.69982,2.11319 z m -0.97595,-0.28883 c -0.006,-0.53867 -0.15733,-0.96826 -0.45078,-1.28923 -0.29007,-0.32085 -0.67523,-0.48139 -1.15618,-0.48139 -0.54464,0 -0.98104,0.15528 -1.30986,0.4655 -0.32532,0.31021 -0.51268,0.74712 -0.56199,1.31061 z"
     style="fill:#000000;fill-rule:evenodd;stroke:#000000;stroke-width:0.2459067;stroke-linecap:butt;stroke-linejoin:miter;stroke-dasharray:none"
     id="path3914"
     inkscape:connector-curvature="0" />
  <path
     d="m 517.63593,125.48182 -3.02292,-7.98704 h 1.11887 l 2.50844,6.72445 2.51352,-6.72445 h 1.11377 l -3.01736,7.98704 z"
     style="fill:#000000;fill-rule:evenodd;stroke:#000000;stroke-width:0.2459067;stroke-linecap:butt;stroke-linejoin:miter;stroke-dasharray:none"
     id="path3916"
     inkscape:connector-curvature="0" />
  <path
     d="m 522.74301,119.49031 h 0.97594 v 5.99151 h -0.97594 z m 0,-2.33227 h 0.97594 v 1.24634 h -0.97594 z"
     style="fill:#000000;fill-rule:evenodd;stroke:#000000;stroke-width:0.2459067;stroke-linecap:butt;stroke-linejoin:miter;stroke-dasharray:none"
     id="path3918"
     inkscape:connector-curvature="0" />
  <path
     d="m 529.66346,120.39957 v -3.24188 h 0.97582 v 8.32413 h -0.97582 v -0.89897 c -0.20494,0.35686 -0.46497,0.62249 -0.77962,0.79709 -0.31126,0.17117 -0.68588,0.25682 -1.12443,0.25682 -0.71761,0 -1.30296,-0.28884 -1.7551,-0.8665 -0.44921,-0.57767 -0.67353,-1.33748 -0.67353,-2.27888 0,-0.94162 0.22432,-1.70121 0.67353,-2.27876 0.45249,-0.57767 1.03749,-0.8665 1.7551,-0.8665 0.43855,0 0.81317,0.0872 1.12443,0.26219 0.31465,0.17117 0.57434,0.4352 0.77962,0.79161 z m -3.32534,2.09181 c 0,0.72403 0.14679,1.293 0.44025,1.70636 0.29698,0.41038 0.70367,0.61528 1.21986,0.61528 0.5162,0 0.92256,-0.2049 1.21976,-0.61528 0.29697,-0.4137 0.44547,-0.98233 0.44547,-1.70636 0,-0.72391 -0.1485,-1.29083 -0.44547,-1.70121 -0.29686,-0.41369 -0.70356,-0.62043 -1.21976,-0.62043 -0.51619,0 -0.92288,0.20674 -1.21986,0.62043 -0.29346,0.41038 -0.44025,0.9773 -0.44025,1.70121 z"
     style="fill:#000000;fill-rule:evenodd;stroke:#000000;stroke-width:0.2459067;stroke-linecap:butt;stroke-linejoin:miter;stroke-dasharray:none"
     id="path3920"
     inkscape:connector-curvature="0" />
  <path
     d="m 537.72941,122.23983 v 0.48138 h -4.48626 c 0.0425,0.67772 0.24393,1.19467 0.6045,1.55142 0.36429,0.3531 0.8695,0.52976 1.51673,0.52976 0.37484,0 0.7371,-0.0463 1.08702,-0.13916 0.35376,-0.0927 0.70367,-0.23189 1.05018,-0.41713 v 0.93099 c -0.34991,0.14979 -0.70878,0.26402 -1.07648,0.34235 -0.3677,0.0783 -0.74063,0.11766 -1.11888,0.11766 -0.9476,0 -1.69876,-0.2782 -2.25395,-0.83437 -0.55145,-0.55628 -0.82711,-1.30889 -0.82711,-2.25749 0,-0.98073 0.26172,-1.75816 0.78471,-2.33228 0.52674,-0.57766 1.23552,-0.8665 2.12667,-0.8665 0.79912,0 1.43013,0.26014 1.89339,0.78086 0.46654,0.51729 0.69982,1.22154 0.69982,2.11319 z m -0.97594,-0.28884 c -0.006,-0.53867 -0.15733,-0.96826 -0.45079,-1.28911 -0.29006,-0.32097 -0.67534,-0.48139 -1.15628,-0.48139 -0.54453,0 -0.98104,0.15528 -1.30975,0.46549 -0.32531,0.31022 -0.5128,0.74701 -0.56199,1.31061 z"
     style="fill:#000000;fill-rule:evenodd;stroke:#000000;stroke-width:0.2459067;stroke-linecap:butt;stroke-linejoin:miter;stroke-dasharray:none"
     id="path3922"
     inkscape:connector-curvature="0" />
  <path
     d="m 541.63238,120.18049 c -0.52334,0 -0.93683,0.20673 -1.24095,0.62043 -0.30412,0.41027 -0.456,0.97375 -0.456,1.69046 0,0.71671 0.15017,1.28226 0.45078,1.69572 0.30412,0.41027 0.71943,0.61529 1.24617,0.61529 0.51971,0 0.93151,-0.20674 1.23563,-0.62043 0.3041,-0.41381 0.456,-0.9773 0.456,-1.69058 0,-0.70973 -0.1519,-1.2715 -0.456,-1.68497 -0.30412,-0.41713 -0.71592,-0.62592 -1.23563,-0.62592 z m 0,-0.83471 c 0.84842,0 1.51503,0.27808 1.99949,0.83437 0.48433,0.55628 0.72656,1.32673 0.72656,2.31089 0,0.98073 -0.24223,1.75129 -0.72656,2.311 -0.48446,0.55617 -1.15073,0.83437 -1.99949,0.83437 -0.85205,0 -1.52014,-0.2782 -2.00447,-0.83437 -0.48095,-0.56005 -0.72114,-1.33027 -0.72114,-2.311 0,-0.9845 0.24053,-1.75461 0.72114,-2.31089 0.48433,-0.55629 1.15242,-0.83437 2.00447,-0.83437 z"
     style="fill:#000000;fill-rule:evenodd;stroke:#000000;stroke-width:0.2459067;stroke-linecap:butt;stroke-linejoin:miter;stroke-dasharray:none"
     id="path3924"
     inkscape:connector-curvature="0" />
  <path
     d="m 552.12708,122.47 c -0.78846,0 -1.3347,0.0911 -1.63847,0.27294 -0.30412,0.18192 -0.45601,0.49213 -0.45601,0.93099 0,0.34955 0.11324,0.62775 0.33937,0.83436 0.22988,0.20331 0.54079,0.30507 0.93355,0.30507 0.54079,0 0.97378,-0.19255 1.29909,-0.57766 0.32872,-0.38889 0.4933,-0.90401 0.4933,-1.54593 v -0.21943 h -0.97049 m 1.94609,-0.40683 v 3.41831 h -0.97593 v -0.90961 c -0.22274,0.36373 -0.50011,0.63313 -0.83256,0.80773 -0.33257,0.17117 -0.73893,0.25682 -1.21986,0.25682 -0.60824,0 -1.09258,-0.17118 -1.45315,-0.51352 -0.35705,-0.34612 -0.53569,-0.80784 -0.53569,-1.38539 0,-0.67395 0.22273,-1.18221 0.66809,-1.52455 0.4492,-0.34235 1.11716,-0.51352 2.00458,-0.51352 h 1.36824 v -0.0963 c 0,-0.45303 -0.14848,-0.80224 -0.44534,-1.04865 -0.29359,-0.2495 -0.70708,-0.37436 -1.24107,-0.37436 -0.33937,0 -0.67013,0.041 -0.9917,0.12314 -0.32179,0.0821 -0.63102,0.20502 -0.92799,0.36922 v -0.90926 c 0.35716,-0.13904 0.70368,-0.24253 1.03953,-0.31022 0.33596,-0.0713 0.66298,-0.10691 0.98104,-0.10691 0.85896,0 1.50074,0.22458 1.92524,0.67395 0.42416,0.44925 0.63623,1.1304 0.63623,2.04344 z m 0,0 z"
     style="fill:#000000;fill-rule:evenodd;stroke:#000000;stroke-width:0.2459067;stroke-linecap:butt;stroke-linejoin:miter;stroke-dasharray:none"
     id="path3926"
     inkscape:connector-curvature="0" />
  <path
     d="m 561.02569,121.86546 v 3.61636 h -0.97593 v -3.58423 c 0,-0.56703 -0.10938,-0.99147 -0.32871,-1.27333 -0.21922,-0.28163 -0.54793,-0.42273 -0.98649,-0.42273 -0.52684,0 -0.94205,0.16946 -1.24616,0.50826 -0.30412,0.33891 -0.45601,0.80063 -0.45601,1.3855 v 3.38619 h -0.98104 v -5.99151 h 0.98104 v 0.93098 c 0.23327,-0.36018 0.50736,-0.62934 0.82201,-0.80772 0.31818,-0.17849 0.68418,-0.26745 1.09768,-0.26745 0.68247,0 1.19868,0.21394 1.54858,0.64181 0.34991,0.42445 0.52503,1.05037 0.52503,1.87787 z"
     style="fill:#000000;fill-rule:evenodd;stroke:#000000;stroke-width:0.2459067;stroke-linecap:butt;stroke-linejoin:miter;stroke-dasharray:none"
     id="path3928"
     inkscape:connector-curvature="0" />
  <path
     d="m 566.89085,120.39957 v -3.24188 h 0.97595 v 8.32413 h -0.97595 v -0.89897 c -0.20493,0.35686 -0.46484,0.62249 -0.77961,0.79709 -0.31126,0.17117 -0.68577,0.25682 -1.12431,0.25682 -0.71774,0 -1.30295,-0.28884 -1.75523,-0.8665 -0.44909,-0.57767 -0.67352,-1.33748 -0.67352,-2.27888 0,-0.94162 0.22443,-1.70121 0.67352,-2.27876 0.45261,-0.57767 1.03749,-0.8665 1.75523,-0.8665 0.43854,0 0.81305,0.0872 1.12431,0.26219 0.31477,0.17117 0.57434,0.4352 0.77961,0.79161 z m -3.32487,2.09181 c 0,0.72403 0.14667,1.293 0.44024,1.70636 0.29687,0.41038 0.70357,0.61528 1.21976,0.61528 0.51619,0 0.92289,-0.2049 1.21987,-0.61528 0.29686,-0.4137 0.44535,-0.98233 0.44535,-1.70636 0,-0.72391 -0.14849,-1.29083 -0.44535,-1.70121 -0.29698,-0.41369 -0.70368,-0.62043 -1.21987,-0.62043 -0.51619,0 -0.92289,0.20674 -1.21976,0.62043 -0.29357,0.41038 -0.44024,0.9773 -0.44024,1.70121 z"
     style="fill:#000000;fill-rule:evenodd;stroke:#000000;stroke-width:0.2459067;stroke-linecap:butt;stroke-linejoin:miter;stroke-dasharray:none"
     id="path3930"
     inkscape:connector-curvature="0" />
  <path
     d="m 518.24065,132.25452 -1.45313,3.97483 h 2.91137 z m -0.60472,-1.06454 h 1.21432 l 3.01736,7.98693 h -1.11377 l -0.72102,-2.04904 h -3.5688 l -0.72114,2.04904 h -1.12953 l 3.02293,-7.98693 z m 0,0 z"
     style="fill:#000000;fill-rule:evenodd;stroke:#000000;stroke-width:0.2459067;stroke-linecap:butt;stroke-linejoin:miter;stroke-dasharray:none"
     id="path3932"
     inkscape:connector-curvature="0" />
  <path
     d="m 522.8754,136.81216 v -3.62698 h 0.97594 v 3.58936 c 0,0.56693 0.10938,0.99308 0.32872,1.27848 0.21921,0.28198 0.54793,0.42274 0.98647,0.42274 0.52686,0 0.94206,-0.16946 1.24618,-0.50827 0.30751,-0.33891 0.46143,-0.80063 0.46143,-1.3855 v -3.39681 h 0.97595 v 5.99139 h -0.97595 v -0.91989 c -0.23667,0.36372 -0.51278,0.63495 -0.8271,0.81298 -0.31126,0.1746 -0.67353,0.26219 -1.08713,0.26219 -0.68237,0 -1.20026,-0.21394 -1.55369,-0.64181 -0.35365,-0.42788 -0.53014,-1.0538 -0.53014,-1.87788 z m 2.45538,-3.77128 z"
     style="fill:#000000;fill-rule:evenodd;stroke:#000000;stroke-width:0.2459067;stroke-linecap:butt;stroke-linejoin:miter;stroke-dasharray:none"
     id="path3934"
     inkscape:connector-curvature="0" />
  <path
     d="m 533.7785,134.09478 v -3.24199 h 0.97594 v 8.32412 h -0.97594 v -0.89886 c -0.20494,0.35642 -0.46485,0.62215 -0.77962,0.79709 -0.31125,0.17118 -0.68577,0.25671 -1.12431,0.25671 -0.71774,0 -1.30295,-0.28883 -1.75523,-0.86639 -0.44908,-0.57766 -0.67352,-1.33759 -0.67352,-2.27887 0,-0.94173 0.22444,-1.70121 0.67352,-2.27888 0.45261,-0.57766 1.03749,-0.86649 1.75523,-0.86649 0.43854,0 0.81306,0.0877 1.12431,0.2623 0.31477,0.17117 0.57434,0.43508 0.77962,0.7916 z m -3.32488,2.09181 c 0,0.72391 0.14667,1.293 0.44024,1.70635 0.29687,0.41027 0.70357,0.61529 1.21976,0.61529 0.5162,0 0.92289,-0.20502 1.21987,-0.61529 0.29686,-0.41369 0.44535,-0.98244 0.44535,-1.70635 0,-0.72402 -0.14849,-1.29095 -0.44535,-1.70121 -0.29698,-0.4137 -0.70367,-0.62043 -1.21987,-0.62043 -0.51619,0 -0.92289,0.20708 -1.21976,0.62043 -0.29357,0.41026 -0.44024,0.97719 -0.44024,1.70121 z"
     style="fill:#000000;fill-rule:evenodd;stroke:#000000;stroke-width:0.2459067;stroke-linecap:butt;stroke-linejoin:miter;stroke-dasharray:none"
     id="path3936"
     inkscape:connector-curvature="0" />
  <path
     d="m 536.76413,133.18518 h 0.97593 v 5.99139 h -0.97593 z m 0,-2.33239 h 0.97593 v 1.24645 h -0.97593 z"
     style="fill:#000000;fill-rule:evenodd;stroke:#000000;stroke-width:0.2459067;stroke-linecap:butt;stroke-linejoin:miter;stroke-dasharray:none"
     id="path3938"
     inkscape:connector-curvature="0" />
  <path
     d="m 542.07785,133.87524 c -0.52345,0 -0.93695,0.20708 -1.24107,0.62043 -0.30412,0.41038 -0.45601,0.97386 -0.45601,1.69058 0,0.71671 0.15019,1.28225 0.4509,1.6956 0.30412,0.41038 0.71932,0.61529 1.24618,0.61529 0.51959,0 0.93138,-0.20673 1.2355,-0.62043 0.30412,-0.41371 0.45601,-0.97719 0.45601,-1.69046 0,-0.70986 -0.15189,-1.27163 -0.45601,-1.68498 -0.30412,-0.41724 -0.71591,-0.62603 -1.2355,-0.62603 z m 0,-0.83436 c 0.8483,0 1.51502,0.27819 1.99937,0.83436 0.48434,0.55628 0.72657,1.32685 0.72657,2.31101 0,0.98061 -0.24223,1.75083 -0.72657,2.31089 -0.48435,0.55628 -1.15073,0.83471 -1.99937,0.83471 -0.85217,0 -1.52025,-0.27809 -2.00459,-0.83471 -0.48095,-0.56006 -0.72102,-1.33028 -0.72102,-2.31089 0,-0.98416 0.24041,-1.75473 0.72102,-2.31101 0.48434,-0.55617 1.15242,-0.83436 2.00459,-0.83436 z"
     style="fill:#000000;fill-rule:evenodd;stroke:#000000;stroke-width:0.2459067;stroke-linecap:butt;stroke-linejoin:miter;stroke-dasharray:none"
     id="path3940"
     inkscape:connector-curvature="0" />
  <path
     d="m 552.17502,133.87524 c -0.52333,0 -0.93695,0.20708 -1.24107,0.62043 -0.30411,0.41038 -0.456,0.97386 -0.456,1.69058 0,0.71671 0.15019,1.28225 0.45091,1.6956 0.30411,0.41038 0.71932,0.61529 1.24616,0.61529 0.51959,0 0.9314,-0.20673 1.23551,-0.62043 0.30412,-0.41371 0.456,-0.97719 0.456,-1.69046 0,-0.70986 -0.15188,-1.27163 -0.456,-1.68498 -0.30411,-0.41724 -0.71592,-0.62603 -1.23551,-0.62603 z m 0,-0.83436 c 0.84831,0 1.51503,0.27819 1.99937,0.83436 0.48435,0.55628 0.72658,1.32685 0.72658,2.31101 0,0.98061 -0.24223,1.75083 -0.72658,2.31089 -0.48434,0.55628 -1.15072,0.83471 -1.99937,0.83471 -0.85205,0 -1.52012,-0.27809 -2.00459,-0.83471 -0.48093,-0.56006 -0.72102,-1.33028 -0.72102,-2.31089 0,-0.98416 0.24042,-1.75473 0.72102,-2.31101 0.48447,-0.55617 1.15254,-0.83436 2.00459,-0.83436 z"
     style="fill:#000000;fill-rule:evenodd;stroke:#000000;stroke-width:0.2459067;stroke-linecap:butt;stroke-linejoin:miter;stroke-dasharray:none"
     id="path3942"
     inkscape:connector-curvature="0" />
  <path
     d="m 556.41226,136.81216 v -3.62698 h 0.97594 v 3.58936 c 0,0.56693 0.10938,0.99308 0.32871,1.27848 0.21922,0.28198 0.54793,0.42274 0.98648,0.42274 0.52685,0 0.94205,-0.16946 1.24616,-0.50827 0.30752,-0.33891 0.46145,-0.80063 0.46145,-1.3855 v -3.39681 h 0.97594 v 5.99139 H 560.411 v -0.91989 c -0.23667,0.36372 -0.51279,0.63495 -0.82711,0.81298 -0.31126,0.1746 -0.67352,0.26219 -1.08714,0.26219 -0.68236,0 -1.20026,-0.21394 -1.55368,-0.64181 -0.35365,-0.42788 -0.53013,-1.0538 -0.53013,-1.87788 z m 2.45503,-3.77128 z"
     style="fill:#000000;fill-rule:evenodd;stroke:#000000;stroke-width:0.2459067;stroke-linecap:butt;stroke-linejoin:miter;stroke-dasharray:none"
     id="path3944"
     inkscape:connector-curvature="0" />
  <path
     d="m 564.37223,131.48397 v 1.70121 h 2.00991 v 0.76496 h -2.00991 v 3.25262 c 0,0.48871 0.0653,0.80269 0.19632,0.94174 0.13443,0.13904 0.40466,0.2088 0.81136,0.2088 h 1.00223 v 0.82396 h -1.00223 c -0.75287,0 -1.27281,-0.14076 -1.55912,-0.42274 -0.28633,-0.28528 -0.4296,-0.80223 -0.4296,-1.55142 v -3.25262 h -0.71603 v -0.76496 h 0.71603 v -1.70121 h 0.98104 z m 0,0 z"
     style="fill:#000000;fill-rule:evenodd;stroke:#000000;stroke-width:0.2459067;stroke-linecap:butt;stroke-linejoin:miter;stroke-dasharray:none"
     id="path3946"
     inkscape:connector-curvature="0" />
  <g
     id="Layer1001"
     transform="matrix(1.0574252,0,0,1.0403421,767.21524,42.829468)" />
  <g
     id="Layer1002"
     transform="matrix(1.0574252,0,0,1.0403421,767.21524,42.829468)" />
  <g
     id="Layer1003"
     transform="matrix(1.1334958,0,0,1.1434397,40.749121,3.9310809)">
    <path
       d="m 194.1347,358.6843 h 28.2707 v -8.4838 h -28.2707 z"
       style="fill:none;stroke:#ff0000;stroke-width:0.21600001;stroke-linecap:butt;stroke-linejoin:miter;stroke-dasharray:none"
       id="path3950"
       inkscape:connector-curvature="0" />
    <path
       d="m 66.7698,358.6843 h 28.2958 v -8.4838 H 66.7698 Z"
       style="fill:none;stroke:#ff0000;stroke-width:0.21600001;stroke-linecap:butt;stroke-linejoin:miter;stroke-dasharray:none"
       id="path3952"
       inkscape:connector-curvature="0" />
    <path
       d="m 194.006,466.5624 h 28.2707 v -8.4838 H 194.006 Z"
       style="fill:none;stroke:#ff0000;stroke-width:0.21600001;stroke-linecap:butt;stroke-linejoin:miter;stroke-dasharray:none"
       id="path3954"
       inkscape:connector-curvature="0" />
    <path
       d="m 66.6255,466.5624 h 28.2958 v -8.4838 H 66.6255 Z"
       style="fill:none;stroke:#ff0000;stroke-width:0.21600001;stroke-linecap:butt;stroke-linejoin:miter;stroke-dasharray:none"
       id="path3956"
       inkscape:connector-curvature="0" />
    <path
       d="m 265.3696,438.2416 h 5.8139 c 0.3688,0 0.7032,0.0893 1.023,0.2245 0.3195,0.1352 0.6069,0.3322 0.8481,0.574 0.2418,0.2418 0.4388,0.529 0.574,0.8482 0.1352,0.3197 0.2245,0.6545 0.2245,1.0233 v 20.0613 c 2.2907,0 4.142,1.8734 4.142,4.1922 0,2.319 -1.8513,4.2168 -4.142,4.2168 v -2.8446 h -8.4835 v 3.0195 c 0,0.3688 -0.0893,0.7033 -0.2245,1.023 -0.1352,0.3195 -0.3325,0.6069 -0.574,0.8481 -0.2418,0.2418 -0.5292,0.4388 -0.8484,0.5741 -0.3195,0.1352 -0.6543,0.2245 -1.023,0.2245 H 26.2278 c -0.3685,0 -0.7285,-0.0893 -1.0479,-0.2245 -0.3195,-0.1353 -0.6069,-0.3323 -0.8484,-0.5741 -0.2415,-0.2418 -0.4388,-0.5289 -0.5741,-0.8481 -0.1349,-0.3197 -0.1992,-0.6542 -0.1992,-1.023 v -3.0195 h -8.4838 v 2.8196 c -2.2904,0 -4.142,-1.8731 -4.142,-4.1921 0,-2.3188 1.8516,-4.1922 4.142,-4.1922 V 440.911 c 0,-0.3685 0.0646,-0.7282 0.1995,-1.048 0.1352,-0.3194 0.3322,-0.6069 0.574,-0.8484 0.2415,-0.2415 0.529,-0.4388 0.8482,-0.574 0.3197,-0.1349 0.6794,-0.1993 1.0482,-0.1993 h 5.8139"
       style="fill:none;stroke:#00ff00;stroke-width:0.21600001;stroke-linecap:butt;stroke-linejoin:miter;stroke-dasharray:none"
       id="path3958"
       inkscape:connector-curvature="0" />
    <path
       d="m 24.0579,375.6844 h -5.8138 c -0.3688,0 -0.7285,-0.0644 -1.0483,-0.1993 -0.3195,-0.1352 -0.6069,-0.3322 -0.8481,-0.574 -0.2418,-0.2418 -0.4388,-0.5292 -0.574,-0.8484 -0.1352,-0.3195 -0.1996,-0.6792 -0.1996,-1.048 v -17.1173 c 0,0 5.3467,0.0907 9.8311,-0.4992 4.4847,-0.5893 14.4156,-3.7097 19.4128,-4.3665 4.9969,-0.6567 13.0998,-0.6984 13.0998,-0.6984 0.7786,0 1.3974,-0.665 1.3974,-1.472 0,-0.8073 -0.6188,-1.4474 -1.3974,-1.4474 0,0 -8.1845,0.0391 -13.1996,0.6984 -5.015,0.6594 -14.9442,3.7792 -19.4128,4.3665 -4.4685,0.5877 -9.7313,0.4992 -9.7313,0.4992 -2.2904,0 -4.142,-1.8978 -4.142,-4.2168 0,-2.3187 1.8516,-4.1922 4.142,-4.1922 v 2.8197 h 8.4838 v -2.9693 c 0,-0.3688 0.0647,-0.7285 0.1993,-1.048 0.1352,-0.3195 0.3325,-0.6069 0.574,-0.8484 0.2418,-0.2415 0.5292,-0.4388 0.8484,-0.574 0.3195,-0.1352 0.6795,-0.1993 1.048,-0.1993 1.0293,0 1.8156,1.2226 2.8448,1.2226 1.029,0 1.7904,-1.2226 2.8194,-1.2226 1.0292,0 1.8156,1.2226 2.8448,1.2226 1.029,0 1.7904,-1.2226 2.8194,-1.2226 1.0292,0 1.8156,1.2226 2.8445,1.2226 1.0293,0 1.8156,-1.2226 2.8449,-1.2226 1.029,0 1.7903,1.2226 2.8193,1.2226 1.0293,0 1.8156,-1.2226 2.8446,-1.2226 h 191.1084 c 1.029,0 1.8156,1.2226 2.8446,1.2226 1.0289,0 1.7906,-1.2226 2.8196,-1.2226 1.029,0 1.8156,1.2226 2.8446,1.2226 1.0289,0 1.7903,-1.2226 2.8196,-1.2226 1.029,0 1.8156,1.2226 2.8445,1.2226 1.029,0 1.8156,-1.2226 2.8446,-1.2226 1.029,0 1.7904,1.2226 2.8196,1.2226 1.029,0 1.8156,-1.2226 2.8446,-1.2226 0.3688,0 0.7036,0.0646 1.023,0.1993 0.3195,0.1352 0.6069,0.3325 0.8484,0.574 0.2415,0.2418 0.4388,0.5292 0.5741,0.8484 0.1352,0.3195 0.2245,0.6792 0.2245,1.048 v 2.9945 h 8.4835 v -2.8449 c 2.2907,0 4.142,1.8981 4.142,4.2169 0,2.319 -1.8513,4.1921 -4.142,4.1921 0,0 -5.2628,0.0885 -9.7311,-0.4992 -4.4685,-0.5876 -14.4227,-3.7074 -19.438,-4.3665 -5.015,-0.6593 -13.1746,-0.6984 -13.1746,-0.6984 -0.7786,0 -1.3972,0.6398 -1.3972,1.4474 0,0.807 0.6186,1.472 1.3972,1.472 0,0 8.1029,0.0417 13.0998,0.6984 4.9969,0.6571 14.9284,3.7772 19.4128,4.3665 3.3633,0.4422 7.217,0.4964 8.9328,0.4992 0.5717,9e-4 0.8983,0 0.8983,0 v 17.1423 c 0,0.3687 -0.0893,0.7035 -0.2245,1.023 -0.1352,0.3197 -0.3322,0.6069 -0.574,0.8484 -0.2415,0.2418 -0.529,0.4388 -0.8482,0.574 -0.3197,0.1352 -0.6542,0.2245 -1.023,0.2245 h -5.8138"
       style="fill:none;stroke:#00ff00;stroke-width:0.21600001;stroke-linecap:butt;stroke-linejoin:miter;stroke-dasharray:none"
       id="path3960"
       inkscape:connector-curvature="0" />
    <g
       id="Layer1004" />
    <g
       id="Layer1005" />
    <g
       id="Layer1006">
      <path
         d="m 12.2298,466.5078 -48.1793,-0.2021"
         style="fill:none;stroke:#3374a9;stroke-width:0.21600001;stroke-linecap:butt;stroke-linejoin:miter;stroke-dasharray:none"
         id="path3964"
         inkscape:connector-curvature="0" />
      <path
         d="m 12.7295,347.3592 -48.1793,-0.2021"
         style="fill:none;stroke:#3374a9;stroke-width:0.21600001;stroke-linecap:butt;stroke-linejoin:miter;stroke-dasharray:none"
         id="path3966"
         inkscape:connector-curvature="0" />
      <path
         d="m -28.7382,436.5043 -0.125,29.8309"
         style="fill:none;stroke:#3374a9;stroke-width:0.21600001;stroke-linecap:butt;stroke-linejoin:miter;stroke-dasharray:none"
         id="path3968"
         inkscape:connector-curvature="0" />
      <path
         d="m -28.3635,347.1866 -0.1238,29.5421"
         style="fill:none;stroke:#3374a9;stroke-width:0.21600001;stroke-linecap:butt;stroke-linejoin:miter;stroke-dasharray:none"
         id="path3970"
         inkscape:connector-curvature="0" />
    </g>
    <text
       x="-30.059065"
       y="425.5683"
       id="text3975">
      <tspan
         font-size="12.0000"
         id="tspan3973"
         style="font-size:12px;font-family:Arial;fill:#3374a9">42.03 mm</tspan>
    </text>
  </g>
  <path
     d="m 258.49783,145.24081 h 9.62077 v -32.35032 h -9.62077 z"
     style="fill:none;stroke:#ff0000;stroke-width:0.2459067;stroke-linecap:butt;stroke-linejoin:miter;stroke-dasharray:none"
     id="path3978"
     inkscape:connector-curvature="0" />
  <path
     d="m 258.49783,42.421668 h 9.62077 V 10.071356 h -9.62077 z"
     style="fill:none;stroke:#ff0000;stroke-width:0.2459067;stroke-linecap:butt;stroke-linejoin:miter;stroke-dasharray:none"
     id="path3980"
     inkscape:connector-curvature="0" />
  <path
     d="m 66.192441,145.24423 h 9.62077 v -32.35031 h -9.62077 z"
     style="fill:none;stroke:#ff0000;stroke-width:0.2459067;stroke-linecap:butt;stroke-linejoin:miter;stroke-dasharray:none"
     id="path3982"
     inkscape:connector-curvature="0" />
  <path
     d="m 66.192441,42.425098 h 9.62077 V 10.074786 h -9.62077 z"
     style="fill:none;stroke:#ff0000;stroke-width:0.2459067;stroke-linecap:butt;stroke-linejoin:miter;stroke-dasharray:none"
     id="path3984"
     inkscape:connector-curvature="0" />
  <path
     d="m 274.52726,13.150525 c 0,-1.320444 -0.25696,-2.56485 -0.73507,-3.7093191 -0.47845,-1.144126 -1.18178,-2.187171 -2.03644,-3.052641 -0.85498,-0.865699 -1.86776,-1.570629 -2.99809,-2.05419 -1.13009,-0.484246 -2.37229,-0.741978 -3.67672,-0.741978 H 69.220241 c -1.30454,0 -2.5464,0.257732 -3.67672,0.741978 -1.13033,0.483904 -2.1431,1.188491 -2.9981,2.05419 -0.85466,0.86547 -1.55799,1.908515 -2.0361,3.052641 -0.47845,1.1444691 -0.73552,2.3888751 -0.73552,3.7093191"
     style="fill:none;stroke:#00ff00;stroke-width:0.2459067;stroke-linecap:butt;stroke-linejoin:miter;stroke-dasharray:none"
     id="path3986"
     inkscape:connector-curvature="0" />
  <path
     d="m 59.773801,151.72708 c 0,5.30624 4.29912,9.61518 9.58778,9.61518 3.14591,0 5.83558,-1.59567 7.66482,-3.88038 2.50876,-3.13405 6.06465,-5.7348 18.38382,-5.7348 H 238.91861 c 12.31985,0 15.84707,2.60075 18.35583,5.7348 1.82924,2.28471 4.54679,3.8518 7.69303,3.8518 5.28902,0 9.55979,-4.2807 9.55979,-9.5866"
     style="fill:none;stroke:#00ff00;stroke-width:0.2459067;stroke-linecap:butt;stroke-linejoin:miter;stroke-dasharray:none"
     id="path3988"
     inkscape:connector-curvature="0" />
  <path
     d="m 99.510531,64.745271 h 1.071379 v 7.077434 h 3.85547 v 0.909606 h -4.926509 v -7.98704 z m 0,0 z"
     style="fill:#000000;fill-rule:evenodd;stroke-width:1.13845682"
     id="path3990"
     inkscape:connector-curvature="0" />
  <path
     d="m 108.45676,65.809813 -1.45314,3.974939 h 2.91138 z m -0.60449,-1.064542 h 1.21442 l 3.01737,7.98704 h -1.11377 l -0.72113,-2.049044 h -3.56881 l -0.72102,2.049044 h -1.12953 l 3.02281,-7.98704 z m 0,0 z"
     style="fill:#000000;fill-rule:evenodd;stroke-width:1.13845682"
     id="path3992"
     inkscape:connector-curvature="0" />
  <path
     d="m 113.23478,64.745271 h 1.44249 l 3.51067,6.68169 v -6.68169 h 1.03952 v 7.98704 h -1.44248 l -3.51067,-6.681576 v 6.681576 h -1.03953 z"
     style="fill:#000000;fill-rule:evenodd;stroke-width:1.13845682"
     id="path3994"
     inkscape:connector-curvature="0" />
  <path
     d="m 159.34505,54.811752 h 1.07649 v 4.852072 c 0,0.85575 0.15392,1.472751 0.46144,1.850886 0.30752,0.374477 0.80592,0.561772 1.49554,0.561772 0.68587,0 1.18257,-0.187295 1.49009,-0.561772 0.30752,-0.378135 0.46145,-0.995136 0.46145,-1.850886 v -4.852072 h 1.07648 v 4.985969 c 0,1.041445 -0.25617,1.827788 -0.76897,2.359259 -0.50905,0.531357 -1.26226,0.797093 -2.25905,0.797093 -1.00054,0 -1.75715,-0.265736 -2.2696,-0.797093 -0.50906,-0.531471 -0.76353,-1.317814 -0.76353,-2.359259 v -4.985969 z m 0,0 z"
     style="fill:#000000;fill-rule:evenodd;stroke-width:1.13845682"
     id="path3996"
     inkscape:connector-curvature="0" />
  <path
     d="m 172.16795,55.073714 v 1.053794 c -0.40681,-0.195986 -0.79027,-0.342346 -1.15072,-0.438623 -0.36057,-0.09628 -0.70878,-0.144532 -1.04475,-0.144532 -0.58318,0 -1.03408,0.114231 -1.35214,0.342347 -0.31478,0.228001 -0.4721,0.552738 -0.4721,0.973753 0,0.35298 0.10427,0.620431 0.31295,0.802237 0.21208,0.178492 0.61164,0.322679 1.19868,0.433478 l 0.64677,0.133897 c 0.79911,0.153221 1.38785,0.424445 1.76587,0.812985 0.38165,0.385111 0.57253,0.902289 0.57253,1.551419 0,0.773995 -0.25787,1.36058 -0.77406,1.759869 -0.5128,0.399518 -1.26567,0.599048 -2.25906,0.599048 -0.37485,0 -0.77407,-0.04277 -1.19856,-0.128408 -0.42075,-0.08553 -0.85726,-0.212223 -1.30975,-0.379966 v -1.112795 c 0.43469,0.246068 0.86089,0.431648 1.2779,0.556284 0.41735,0.124863 0.82711,0.187295 1.23041,0.187295 0.61163,0 1.08373,-0.12109 1.41585,-0.363614 0.33211,-0.242638 0.4984,-0.588414 0.4984,-1.038015 0,-0.392314 -0.12004,-0.699099 -0.36057,-0.920354 -0.23667,-0.221141 -0.62762,-0.386826 -1.17192,-0.497511 l -0.65233,-0.128408 c -0.799,-0.160424 -1.37719,-0.411982 -1.7339,-0.754327 -0.35717,-0.342347 -0.53569,-0.818474 -0.53569,-1.42827 0,-0.705961 0.24562,-1.262587 0.73711,-1.66908 0.49499,-0.406493 1.17543,-0.609682 2.04188,-0.609682 0.3711,0 0.74946,0.03373 1.13497,0.101766 0.3855,0.06757 0.77961,0.169458 1.18257,0.305069 z m 0,0 z"
     style="fill:#000000;fill-rule:evenodd;stroke-width:1.13845682"
     id="path3998"
     inkscape:connector-curvature="0" />
  <path
     d="m 175.38674,58.984393 v 2.926176 h 1.71827 c 0.57638,0 1.00224,-0.119375 1.2779,-0.358583 0.27918,-0.242524 0.41905,-0.611397 0.41905,-1.107306 0,-0.499341 -0.13953,-0.8665 -0.41905,-1.102162 -0.27566,-0.238751 -0.70186,-0.358468 -1.2779,-0.358468 h -1.71827 m 0,-3.284417 v 2.407169 h 1.58553 c 0.52334,0 0.9119,-0.098 1.16683,-0.294321 0.25786,-0.199759 0.3872,-0.50277 0.3872,-0.909263 0,-0.403063 -0.129,-0.704245 -0.3872,-0.904119 -0.25459,-0.199758 -0.64349,-0.299466 -1.16683,-0.299466 z m -1.07104,-0.887881 h 2.7366 c 0.81657,0 1.44588,0.171172 1.88783,0.513519 0.44207,0.342231 0.66299,0.829108 0.66299,1.460287 0,0.488591 -0.11324,0.877132 -0.33937,1.166308 -0.22602,0.288833 -0.55858,0.469039 -0.99714,0.540389 0.52685,0.114231 0.93525,0.352981 1.22497,0.716709 0.29358,0.360298 0.44025,0.811271 0.44025,1.353375 0,0.713278 -0.24042,1.264416 -0.72102,1.652956 -0.48094,0.388885 -1.16511,0.583155 -2.05242,0.583155 h -2.84269 v -7.987041 z m 0,0 z"
     style="fill:#000000;fill-rule:evenodd;stroke-width:1.13845682"
     id="path4000"
     inkscape:connector-curvature="0" />
  <path
     d="m 218.40029,54.811752 h 1.07649 v 4.852072 c 0,0.85575 0.15393,1.472751 0.46144,1.850886 0.30752,0.374477 0.80592,0.561772 1.49554,0.561772 0.68587,0 1.18258,-0.187295 1.49009,-0.561772 0.30752,-0.378135 0.46144,-0.995136 0.46144,-1.850886 v -4.852072 h 1.07649 v 4.985969 c 0,1.041445 -0.25618,1.827788 -0.76897,2.359259 -0.50894,0.531357 -1.26225,0.797093 -2.25905,0.797093 -1.00054,0 -1.75714,-0.265736 -2.2696,-0.797093 -0.50894,-0.531471 -0.76353,-1.317814 -0.76353,-2.359259 v -4.985969 z m 0,0 z"
     style="fill:#000000;fill-rule:evenodd;stroke-width:1.13845682"
     id="path4002"
     inkscape:connector-curvature="0" />
  <path
     d="m 231.2232,55.073714 v 1.053794 c -0.40682,-0.195986 -0.79028,-0.342346 -1.15073,-0.438623 -0.36057,-0.09628 -0.70878,-0.144532 -1.04475,-0.144532 -0.58317,0 -1.03409,0.114231 -1.35214,0.342347 -0.31478,0.228001 -0.4721,0.552738 -0.4721,0.973753 0,0.35298 0.1044,0.620431 0.31296,0.802237 0.21207,0.178492 0.61163,0.322679 1.19866,0.433478 l 0.6469,0.133897 c 0.799,0.153221 1.38773,0.424445 1.76575,0.812985 0.38165,0.385111 0.57253,0.902289 0.57253,1.551419 0,0.773995 -0.25786,1.36058 -0.77407,1.759869 -0.51279,0.399518 -1.26566,0.599048 -2.25904,0.599048 -0.37486,0 -0.77407,-0.04277 -1.19857,-0.128408 -0.42075,-0.08553 -0.85726,-0.212223 -1.30975,-0.379966 v -1.112795 c 0.43469,0.246068 0.86088,0.431648 1.2779,0.556284 0.41735,0.124863 0.82711,0.187295 1.23042,0.187295 0.61162,0 1.08373,-0.12109 1.41584,-0.363614 0.33211,-0.242638 0.49839,-0.588414 0.49839,-1.038015 0,-0.392314 -0.12003,-0.699099 -0.36055,-0.920354 -0.23668,-0.221141 -0.62762,-0.386826 -1.17192,-0.497511 l -0.65233,-0.128408 c -0.799,-0.160424 -1.3772,-0.411982 -1.73392,-0.754327 -0.35716,-0.342347 -0.53568,-0.818474 -0.53568,-1.42827 0,-0.705961 0.24563,-1.262587 0.73711,-1.66908 0.495,-0.406493 1.17544,-0.609682 2.04187,-0.609682 0.37112,0 0.74947,0.03373 1.13497,0.101766 0.3855,0.06757 0.77962,0.169458 1.18259,0.305069 z m 0,0 z"
     style="fill:#000000;fill-rule:evenodd;stroke-width:1.13845682"
     id="path4004"
     inkscape:connector-curvature="0" />
  <path
     d="m 234.44198,58.984393 v 2.926176 h 1.71827 c 0.57638,0 1.00224,-0.119375 1.27802,-0.358583 0.27907,-0.242524 0.41893,-0.611397 0.41893,-1.107306 0,-0.499341 -0.13953,-0.8665 -0.41893,-1.102162 -0.27578,-0.238751 -0.70198,-0.358468 -1.27802,-0.358468 h -1.71827 m 0,-3.284417 v 2.407169 h 1.58554 c 0.52333,0 0.91201,-0.098 1.16682,-0.294321 0.25786,-0.199759 0.3872,-0.50277 0.3872,-0.909263 0,-0.403063 -0.12899,-0.704245 -0.3872,-0.904119 -0.25447,-0.199758 -0.64349,-0.299466 -1.16682,-0.299466 z m -1.07126,-0.887881 h 2.73648 c 0.81657,0 1.446,0.171172 1.88795,0.513519 0.44195,0.342231 0.66287,0.829108 0.66287,1.460287 0,0.488591 -0.11323,0.877132 -0.33937,1.166308 -0.22602,0.288833 -0.55859,0.469039 -0.99714,0.540389 0.52685,0.114231 0.93525,0.352981 1.22497,0.716709 0.29358,0.360298 0.44026,0.811271 0.44026,1.353375 0,0.713278 -0.24042,1.264416 -0.72102,1.652956 -0.48095,0.388885 -1.16512,0.583155 -2.05242,0.583155 h -2.84258 v -7.987041 z m 0,0 z"
     style="fill:#000000;fill-rule:evenodd;stroke-width:1.13845682"
     id="path4006"
     inkscape:connector-curvature="0" />
  <path
     d="m 84.294261,76.409385 h 50.263049 c 0.81896,-6.86e-4 1.4825,0.668684 1.4825,1.494133 l -6.8e-4,44.276052 c 6.8e-4,0.82499 -0.66286,1.49447 -1.48114,1.49447 l -50.263729,3.4e-4 c -0.81782,-3.4e-4 -1.48148,-0.66982 -1.48148,-1.49516 l -3.4e-4,-44.275016 c 3.4e-4,-0.826135 0.664,-1.495505 1.48216,-1.495505 z"
     style="fill:none;stroke:#ff0000;stroke-width:0.2459067;stroke-linecap:butt;stroke-linejoin:round;stroke-dasharray:none"
     id="path4008"
     inkscape:connector-curvature="0" />
  <path
     d="m 146.45936,65.819532 h 46.3966 c 1.77154,-6.86e-4 3.20756,1.447938 3.20756,3.234334 l -6.9e-4,51.644944 c 6.9e-4,1.78605 -1.43533,3.23468 -3.2062,3.23468 l -46.39727,3.4e-4 c -1.77029,-3.4e-4 -3.20632,-1.44897 -3.20632,-3.23536 l -6.8e-4,-51.643918 c 6.8e-4,-1.787082 1.43671,-3.235706 3.20768,-3.235706 z"
     style="fill:none;stroke:#00ff00;stroke-width:0.2459067;stroke-linecap:butt;stroke-linejoin:round;stroke-dasharray:none"
     id="path4010"
     inkscape:connector-curvature="0" />
  <path
     d="m 205.58669,65.819532 h 46.39705 c 1.77119,-6.86e-4 3.20723,1.447938 3.20723,3.234334 l -3.5e-4,51.644944 c 3.5e-4,1.78605 -1.43569,3.23468 -3.20654,3.23468 l -46.39739,3.4e-4 c -1.77018,-3.4e-4 -3.2062,-1.44897 -3.2062,-3.23536 l -6.8e-4,-51.643918 c 6.8e-4,-1.787082 1.4367,-3.235706 3.20757,-3.235706 z"
     style="fill:none;stroke:#ff0000;stroke-width:0.2459067;stroke-linecap:butt;stroke-linejoin:round;stroke-dasharray:none"
     id="path4012"
     inkscape:connector-curvature="0" />
  <path
     d="m 158.27061,87.755281 c -2.36912,0 -4.28948,-1.939275 -4.28948,-4.331693 0,-2.392305 1.92036,-4.331579 4.28948,-4.331579 2.36924,0 4.28961,1.939274 4.28961,4.331579 0,2.392418 -1.92037,4.331693 -4.28961,4.331693 z"
     style="fill:none;stroke:#ff0000;stroke-width:0.2459067;stroke-linecap:butt;stroke-linejoin:miter;stroke-dasharray:none"
     id="path4014"
     inkscape:connector-curvature="0" />
  <path
     d="m 157.46674,92.993492 c -4.88163,-0.411752 -8.71624,-4.539113 -8.71624,-9.570247 0,-5.304075 4.26251,-9.603979 9.52045,-9.603979 5.25795,0 9.52046,4.299904 9.52046,9.603979 0,5.030792 -3.83416,9.157809 -8.71556,9.570247"
     style="fill:none;stroke:#ff0000;stroke-width:0.2459067;stroke-linecap:butt;stroke-linejoin:miter;stroke-dasharray:none"
     id="path4016"
     inkscape:connector-curvature="0" />
  <path
     d="m 181.04459,87.755281 c -2.36913,0 -4.28949,-1.939275 -4.28949,-4.331693 0,-2.392305 1.92036,-4.331579 4.28949,-4.331579 2.36923,0 4.2896,1.939274 4.2896,4.331579 0,2.392418 -1.92037,4.331693 -4.2896,4.331693 z"
     style="fill:none;stroke:#ff0000;stroke-width:0.2459067;stroke-linecap:butt;stroke-linejoin:miter;stroke-dasharray:none"
     id="path4018"
     inkscape:connector-curvature="0" />
  <path
     d="m 180.24071,92.993492 c -4.88163,-0.411752 -8.71624,-4.539113 -8.71624,-9.570247 0,-5.304075 4.26251,-9.603979 9.52045,-9.603979 5.25795,0 9.52046,4.299904 9.52046,9.603979 0,5.030792 -3.83416,9.157809 -8.71556,9.570247"
     style="fill:none;stroke:#ff0000;stroke-width:0.2459067;stroke-linecap:butt;stroke-linejoin:miter;stroke-dasharray:none"
     id="path4020"
     inkscape:connector-curvature="0" />
  <path
     d="m 158.27061,110.6952 c -2.36912,0 -4.28948,-1.93928 -4.28948,-4.3317 0,-2.3923 1.92036,-4.33157 4.28948,-4.33157 2.36924,0 4.28961,1.93927 4.28961,4.33157 0,2.39242 -1.92037,4.3317 -4.28961,4.3317 z"
     style="fill:none;stroke:#ff0000;stroke-width:0.2459067;stroke-linecap:butt;stroke-linejoin:miter;stroke-dasharray:none"
     id="path4022"
     inkscape:connector-curvature="0" />
  <path
     d="m 157.46674,115.93375 c -4.88163,-0.41164 -8.71624,-4.53911 -8.71624,-9.57025 0,-5.30407 4.26251,-9.603975 9.52045,-9.603975 5.25795,0 9.52046,4.299905 9.52046,9.603975 0,5.0308 -3.83416,9.15793 -8.71556,9.57025"
     style="fill:none;stroke:#ff0000;stroke-width:0.2459067;stroke-linecap:butt;stroke-linejoin:miter;stroke-dasharray:none"
     id="path4024"
     inkscape:connector-curvature="0" />
  <path
     d="m 181.04459,110.6952 c -2.36913,0 -4.28949,-1.93928 -4.28949,-4.3317 0,-2.3923 1.92036,-4.33157 4.28949,-4.33157 2.36923,0 4.2896,1.93927 4.2896,4.33157 0,2.39242 -1.92037,4.3317 -4.2896,4.3317 z"
     style="fill:none;stroke:#ff0000;stroke-width:0.2459067;stroke-linecap:butt;stroke-linejoin:miter;stroke-dasharray:none"
     id="path4026"
     inkscape:connector-curvature="0" />
  <path
     d="m 180.24071,115.93375 c -4.88163,-0.41164 -8.71624,-4.53911 -8.71624,-9.57025 0,-5.30407 4.26251,-9.603975 9.52045,-9.603975 5.25795,0 9.52046,4.299905 9.52046,9.603975 0,5.0308 -3.83416,9.15793 -8.71556,9.57025"
     style="fill:none;stroke:#ff0000;stroke-width:0.2459067;stroke-linecap:butt;stroke-linejoin:miter;stroke-dasharray:none"
     id="path4028"
     inkscape:connector-curvature="0" />
  <g
     id="Layer1007"
     transform="matrix(1.0574252,0,0,1.0403421,767.21524,42.829468)" />
  <g
     id="Layer1008"
     transform="matrix(1.0574252,0,0,1.0403421,767.21524,42.829468)" />
  <g
     id="Layer1009"
     transform="matrix(1.1334958,0,0,1.1434397,38.854901,-2.5429581)">
    <path
       d="m 314.3635,345.6243 h -8.4877 v 28.2921 h 8.4877 z"
       style="fill:none;stroke:#ff0000;stroke-width:0.21600001;stroke-linecap:butt;stroke-linejoin:miter;stroke-dasharray:none"
       id="path4032"
       inkscape:connector-curvature="0" />
    <path
       d="m 314.1126,436.4767 h -8.4876 v 28.2921 h 8.4876 z"
       style="fill:none;stroke:#ff0000;stroke-width:0.21600001;stroke-linecap:butt;stroke-linejoin:miter;stroke-dasharray:none"
       id="path4034"
       inkscape:connector-curvature="0" />
    <path
       d="m 484.0204,345.6213 h -8.4876 v 28.2921 h 8.4876 z"
       style="fill:none;stroke:#ff0000;stroke-width:0.21600001;stroke-linecap:butt;stroke-linejoin:miter;stroke-dasharray:none"
       id="path4036"
       inkscape:connector-curvature="0" />
    <path
       d="m 483.7695,436.4737 h -8.4876 v 28.2921 h 8.4876 z"
       style="fill:none;stroke:#ff0000;stroke-width:0.21600001;stroke-linecap:butt;stroke-linejoin:miter;stroke-dasharray:none"
       id="path4038"
       inkscape:connector-curvature="0" />
    <path
       d="m 489.6856,339.9474 c 0,-4.6403 -3.7927,-8.4089 -8.4586,-8.4089 -2.7757,0 -5.1732,1.3955 -6.7873,3.3936 -2.2132,2.7408 -5.3251,5.0153 -16.1937,5.0153 H 331.664 c -10.8689,0 -14.0054,-2.2745 -16.2187,-5.0153 -1.6137,-1.9981 -4.0113,-3.3936 -6.7873,-3.3936 v 2e-4 c -4.6658,0 -8.4339,3.7687 -8.4339,8.409"
       style="fill:none;stroke:#00ff00;stroke-width:0.21600001;stroke-linecap:butt;stroke-linejoin:miter;stroke-dasharray:none"
       id="path4040"
       inkscape:connector-curvature="0" />
    <path
       d="m 299.9733,462.0719 c 0,1.1551 0.227,2.2683 0.6488,3.2686 0.4221,1.0007 1.0423,1.8885 1.7966,2.645 0.754,0.7569 1.6478,1.3734 2.6447,1.7964 0.9973,0.4235 2.0929,0.6488 3.244,0.6488 h 172.7935 c 1.1508,0 2.2464,-0.2253 3.2437,-0.6488 0.9972,-0.4233 1.8907,-1.0395 2.6447,-1.7964 0.7543,-0.7571 1.3748,-1.6693 1.7966,-2.6699 0.4221,-1.0006 0.6488,-2.0891 0.6488,-3.244"
       style="fill:none;stroke:#00ff00;stroke-width:0.21600001;stroke-linecap:butt;stroke-linejoin:miter;stroke-dasharray:none"
       id="path4042"
       inkscape:connector-curvature="0" />
    <path
       d="m 394.9427,350.6772 c -6.2013,0 -11.2284,3.4491 -11.2284,7.6852 h -4.9903 c -0.7837,0 -1.3973,0.6386 -1.3973,1.4223 v 2.146 c 0,0.7837 0.6136,1.3973 1.3973,1.3973 h 32.4377 c 0.7838,0 1.4223,-0.6136 1.4223,-1.3973 v -2.146 c 0,-0.7837 -0.6385,-1.4223 -1.4223,-1.4223 h -4.9903 c 0,-4.2361 -5.0271,-7.6852 -11.2284,-7.6852 z"
       style="fill:none;stroke:#ff0000;stroke-width:0.21600001;stroke-linecap:butt;stroke-linejoin:round;stroke-dasharray:none"
       id="path4044"
       inkscape:connector-curvature="0" />
    <path
       d="m 409.1733,373.4697 v -0.9217 c 0.3588,0.1715 0.6971,0.2994 1.0152,0.3836 0.3181,0.0842 0.6253,0.1265 0.9216,0.1265 0.5146,0 0.9123,-0.0999 1.193,-0.2994 0.2776,-0.1995 0.4164,-0.4835 0.4164,-0.8516 0,-0.3088 -0.092,-0.5427 -0.2761,-0.7017 -0.1871,-0.156 -0.5396,-0.2822 -1.0574,-0.379 l -0.5707,-0.1171 c -0.705,-0.134 -1.2244,-0.3712 -1.5578,-0.711 -0.3368,-0.3368 -0.5052,-0.7892 -0.5052,-1.3568 0,-0.6769 0.2275,-1.19 0.6829,-1.5391 0.4524,-0.3495 1.1166,-0.5239 1.993,-0.5239 0.3308,0 0.6829,0.0374 1.0574,0.1122 0.3712,0.0749 0.7563,0.1856 1.1556,0.3323 v 0.9732 c -0.3836,-0.2151 -0.7596,-0.3775 -1.1275,-0.4864 -0.3682,-0.1093 -0.7297,-0.1639 -1.0855,-0.1639 -0.5396,0 -0.956,0.1059 -1.2491,0.3181 -0.293,0.2121 -0.4397,0.5145 -0.4397,0.9077 0,0.3432 0.1059,0.6115 0.3181,0.8046 0.2088,0.1934 0.5538,0.3383 1.0339,0.4352 l 0.5755,0.1122 c 0.705,0.1404 1.215,0.3604 1.5297,0.6597 0.3151,0.2994 0.4726,0.7159 0.4726,1.2491 0,0.6175 -0.2166,1.1042 -0.6503,1.4597 -0.4367,0.3555 -1.0369,0.5333 -1.8013,0.5333 -0.3275,0 -0.6613,-0.0296 -1.0014,-0.089 -0.3401,-0.0592 -0.6877,-0.1482 -1.0432,-0.2668 z m 0,0 z"
       style="fill:#000000;fill-rule:evenodd"
       id="path4046"
       inkscape:connector-curvature="0" />
    <path
       d="m 391.624,373.161 v -0.9965 c 0.3181,0.2963 0.6582,0.5178 1.02,0.6642 0.3588,0.1467 0.7409,0.22 1.1462,0.22 0.7985,0 1.4099,-0.2448 1.8339,-0.7345 0.4243,-0.4865 0.6362,-1.1915 0.6362,-2.1146 0,-0.9202 -0.2122,-1.6251 -0.6362,-2.1146 -0.4243,-0.4865 -1.0354,-0.7297 -1.8339,-0.7297 -0.4056,0 -0.7877,0.0733 -1.1462,0.22 -0.3618,0.1466 -0.7016,0.3681 -1.02,0.6642 v -0.9871 c 0.3308,-0.2246 0.6814,-0.393 1.0526,-0.5052 0.3682,-0.1123 0.7581,-0.1684 1.1697,-0.1684 1.0575,0 1.8901,0.3229 2.4985,0.9684 0.6081,0.6488 0.9123,1.5331 0.9123,2.6527 0,1.1229 -0.3042,2.0071 -0.9123,2.6526 -0.6081,0.6489 -1.441,0.9733 -2.4985,0.9733 -0.4179,0 -0.8109,-0.0561 -1.179,-0.1684 -0.3712,-0.1093 -0.7189,-0.2746 -1.0433,-0.4958 z m 0,0 z"
       style="fill:#000000;fill-rule:evenodd"
       id="path4048"
       inkscape:connector-curvature="0" />
    <path
       d="m 387.811,369.3479 c 0.6956,0 1.1775,-0.0796 1.4455,-0.2387 0.2683,-0.159 0.4023,-0.4303 0.4023,-0.8142 0,-0.3057 -0.0999,-0.5489 -0.2994,-0.7297 -0.2028,-0.1777 -0.4771,-0.2668 -0.8235,-0.2668 -0.4772,0 -0.8592,0.1684 -1.1462,0.5052 -0.29,0.3401 -0.4352,0.7907 -0.4352,1.352 v 0.1919 h 0.8562 m -1.7166,0.3558 v -2.9894 h 0.861 v 0.7952 c 0.1965,-0.3181 0.4412,-0.5538 0.7346,-0.7065 0.2933,-0.1497 0.6518,-0.2245 1.0761,-0.2245 0.5366,0 0.9639,0.1497 1.282,0.449 0.315,0.3027 0.4726,0.7065 0.4726,1.2117 0,0.5894 -0.1965,1.0339 -0.5894,1.3333 -0.3962,0.2993 -0.9856,0.449 -1.7685,0.449 h -1.2071 v 0.0842 c 0,0.3962 0.131,0.7017 0.3929,0.9171 0.259,0.2182 0.6238,0.3275 1.0949,0.3275 0.2994,0 0.5912,-0.036 0.8749,-0.1078 0.284,-0.0718 0.5568,-0.1792 0.8187,-0.3229 v 0.7952 c -0.315,0.1216 -0.6208,0.2122 -0.9171,0.2713 -0.2964,0.0625 -0.5849,0.0936 -0.8655,0.0936 -0.7578,0 -1.3239,-0.1965 -1.6985,-0.5894 -0.3742,-0.3929 -0.5613,-0.9887 -0.5613,-1.7872 z m 0,0 z"
       style="fill:#000000;fill-rule:evenodd"
       id="path4050"
       inkscape:connector-curvature="0" />
    <path
       d="m 381.2798,371.149 c 0.0966,0.0561 0.2028,0.0965 0.3181,0.1216 0.1122,0.0281 0.2369,0.0419 0.3742,0.0419 0.4864,0 0.861,-0.159 1.1229,-0.4771 0.2589,-0.315 0.3884,-0.7689 0.3884,-1.3613 v -2.7604 h 0.8655 v 5.2398 h -0.8655 v -0.8142 c -0.1808,0.3181 -0.4165,0.5535 -0.7065,0.7065 -0.29,0.156 -0.6425,0.2339 -1.0574,0.2339 -0.0592,0 -0.1247,-0.005 -0.1965,-0.0142 -0.0718,-0.006 -0.1512,-0.0172 -0.2387,-0.0326 l -0.005,-0.8842 z m 0,0 z"
       style="fill:#000000;fill-rule:evenodd"
       id="path4052"
       inkscape:connector-curvature="0" />
    <path
       d="m 377.088,371.1583 v 2.8353 h -0.861 v -7.2799 h 0.861 v 0.7858 c 0.1808,-0.312 0.4101,-0.5444 0.6878,-0.6971 0.2746,-0.1497 0.6051,-0.2245 0.9919,-0.2245 0.6332,0 1.1495,0.2526 1.5485,0.7577 0.3962,0.5052 0.5942,1.1698 0.5942,1.993 0,0.8236 -0.198,1.4878 -0.5942,1.993 -0.3993,0.5052 -0.9153,0.7578 -1.5485,0.7578 -0.3868,0 -0.7173,-0.0764 -0.9919,-0.2294 -0.2777,-0.1497 -0.5067,-0.3805 -0.6878,-0.6923 z m 2.9333,-1.8291 c 0,-0.6331 -0.1294,-1.1308 -0.3883,-1.4923 -0.262,-0.3588 -0.6208,-0.5381 -1.0762,-0.5381 -0.4554,0 -0.8142,0.1793 -1.0762,0.5381 -0.2619,0.3618 -0.3929,0.8592 -0.3929,1.4923 0,0.6332 0.131,1.129 0.3929,1.4878 0.262,0.3618 0.6208,0.5426 1.0762,0.5426 0.4554,0 0.8142,-0.1808 1.0762,-0.5426 0.2589,-0.3588 0.3883,-0.8546 0.3883,-1.4878 z"
       style="fill:#000000;fill-rule:evenodd"
       id="path4054"
       inkscape:connector-curvature="0" />
    <path
       d="m 406.3335,372.9222 v -5.4317 h -1.1416 c -0.9639,0 -1.6686,0.2181 -2.1146,0.6548 -0.4491,0.4367 -0.6736,1.126 -0.6736,2.0678 0,0.9359 0.2245,1.6203 0.6736,2.054 0.446,0.4367 1.151,0.6548 2.1146,0.6548 h 1.1416 m 0.9449,0.7768 h -1.9417 c -1.3538,0 -2.347,-0.2821 -2.9801,-0.8468 -0.6331,-0.5613 -0.9497,-1.441 -0.9497,-2.6388 0,-1.2038 0.3181,-2.088 0.9545,-2.6526 0.6362,-0.5647 1.6282,-0.8468 2.9756,-0.8468 h 1.9417 v 6.985 z m 0,0 z"
       style="fill:#000000;fill-rule:evenodd"
       id="path4056"
       inkscape:connector-curvature="0" />
    <path
       d="m 300.2241,339.9477 -0.2508,122.1242"
       style="fill:none;stroke:#00ff00;stroke-width:0.21600001;stroke-linecap:butt;stroke-linejoin:miter;stroke-dasharray:none"
       id="path4058"
       inkscape:connector-curvature="0" />
    <path
       d="m 489.6856,339.9474 -0.2509,122.1242"
       style="fill:none;stroke:#00ff00;stroke-width:0.21600001;stroke-linecap:butt;stroke-linejoin:miter;stroke-dasharray:none"
       id="path4060"
       inkscape:connector-curvature="0" />
  </g>
  <path
     d="m 331.18676,179.57749 c 0,-0.16751 -0.13342,-0.29363 -0.31126,-0.29363 h -48.53402 v -6.2146 c 0,-0.39413 -0.10119,-0.77868 -0.25448,-1.12033 -0.15324,-0.34167 -0.34821,-0.64868 -0.62218,-0.90676 -0.27407,-0.25841 -0.59972,-0.46903 -0.96154,-0.61356 -0.36226,-0.14453 -0.77009,-0.21326 -1.18802,-0.21326 h -26.02064 c -0.41803,0 -0.82575,0.069 -1.18801,0.21326 -0.36227,0.14453 -0.68793,0.35515 -0.96155,0.61356 -0.27397,0.25831 -0.49738,0.56543 -0.65062,0.90676 -0.15325,0.34165 -0.22614,0.7262 -0.22614,1.12033 v 6.2146 H 137.9841 v -6.2146 c 0,-0.39413 -0.10122,-0.77868 -0.25447,-1.12033 -0.15325,-0.34167 -0.37666,-0.64868 -0.65063,-0.90676 -0.27408,-0.25841 -0.59962,-0.46903 -0.96154,-0.61356 -0.36227,-0.14453 -0.74165,-0.21326 -1.15968,-0.21326 h -26.02053 c -0.41803,0 -0.82587,0.069 -1.18802,0.21326 -0.36226,0.14453 -0.68792,0.35515 -0.96166,0.61356 -0.27396,0.25831 -0.49726,0.56543 -0.65051,0.90676 -0.15325,0.34165 -0.22613,0.7262 -0.22613,1.12033 v 6.2146 H 57.433691 c -0.1775,0 -0.31125,0.12589 -0.31125,0.29363 v 183.19575 c 0,0.1674 0.13341,0.29363 0.31125,0.29363 h 48.477239 v 6.2146 c 0,0.39414 0.10122,0.77869 0.25447,1.12034 0.15325,0.34166 0.37666,0.64868 0.65063,0.90675 0.27396,0.25842 0.59961,0.46904 0.96154,0.61357 0.36227,0.14453 0.74165,0.21325 1.15968,0.21325 h 26.02053 c 0.41803,0 0.82575,-0.069 1.18802,-0.21325 0.36226,-0.14453 0.68791,-0.35515 0.96154,-0.61357 0.27408,-0.25842 0.49738,-0.56543 0.65063,-0.90675 0.15325,-0.34165 0.22613,-0.7262 0.22613,-1.12034 v -6.2146 h 112.2842 v 6.2146 c 0,0.39414 0.10119,0.77869 0.25448,1.12034 0.15324,0.34166 0.37666,0.64868 0.65062,0.90675 0.27408,0.25842 0.59973,0.46904 0.96154,0.61357 0.36227,0.14453 0.74165,0.21325 1.15968,0.21325 h 26.02064 c 0.41793,0 0.82576,-0.069 1.18802,-0.21325 0.36216,-0.14453 0.68781,-0.35515 0.96154,-0.61357 0.27397,-0.25842 0.49738,-0.56543 0.65064,-0.90675 0.15324,-0.34165 0.22602,-0.7262 0.22602,-1.12034 v -6.2146 h 48.53402 c 0.1775,0 0.31126,-0.12589 0.31126,-0.29363 z"
     style="fill:none;stroke:#00ff00;stroke-width:0.2459067;stroke-linecap:butt;stroke-linejoin:miter;stroke-dasharray:none"
     id="path4063"
     inkscape:connector-curvature="0" />
  <path
     d="m 486.64321,446.3165 c 10.59343,0 19.18646,8.66841 19.18646,19.35454 0,10.68636 -8.59303,19.35478 -19.18646,19.35478 -10.5932,0 -19.18645,-8.66842 -19.18645,-19.35478 0,-10.68613 8.59325,-19.35454 19.18645,-19.35454 z"
     style="fill:none;stroke:#ff0000;stroke-width:0.2459067;stroke-linecap:butt;stroke-linejoin:miter;stroke-dasharray:none"
     id="path4065"
     inkscape:connector-curvature="0" />
  <path
     d="m 258.49783,145.24081 h 9.62077 v -32.35032 h -9.62077 z"
     style="fill:none;stroke:#ff0000;stroke-width:0.2459067;stroke-linecap:butt;stroke-linejoin:miter;stroke-dasharray:none"
     id="path4075"
     inkscape:connector-curvature="0" />
  <path
     d="M 51.142061,480.4363 H 356.07038 V 389.66264 H 51.142061 Z"
     style="fill:none;stroke:#ff0000;stroke-width:0.29344174;stroke-linecap:butt;stroke-linejoin:miter;stroke-dasharray:none"
     id="path4077"
     inkscape:connector-curvature="0" />
  <path
     d="m 66.192441,145.24423 h 9.62077 v -32.35031 h -9.62077 z"
     style="fill:none;stroke:#ff0000;stroke-width:0.2459067;stroke-linecap:butt;stroke-linejoin:miter;stroke-dasharray:none"
     id="path4079"
     inkscape:connector-curvature="0" />
  <path
     d="m 66.192441,42.425098 h 9.62077 V 10.074786 h -9.62077 z"
     style="fill:none;stroke:#ff0000;stroke-width:0.2459067;stroke-linecap:butt;stroke-linejoin:miter;stroke-dasharray:none"
     id="path4081"
     inkscape:connector-curvature="0" />
  <path
     d="m 274.52726,43.131881 c 0,-5.462333 -0.25696,-10.610114 -0.73507,-15.344485 -0.47845,-4.732949 -1.18178,-9.047758 -2.03644,-12.627981 -0.85498,-3.581168 -1.86776,-6.4972821 -2.99809,-8.4976481 -1.13009,-2.003202 -2.37229,-3.06937 -3.67672,-3.06937 H 69.220241 c -1.30454,0 -2.5464,1.066168 -3.67672,3.06937 -1.13033,2.001784 -2.1431,4.9164801 -2.9981,8.4976481 -0.85466,3.580223 -1.55799,7.895032 -2.0361,12.627981 -0.47845,4.734371 -0.73552,9.882152 -0.73552,15.344485"
     style="fill:none;stroke:#00ff00;stroke-width:0.50014907;stroke-linecap:butt;stroke-linejoin:miter;stroke-dasharray:none"
     id="path4083"
     inkscape:connector-curvature="0" />
  <path
     d="m 59.773801,151.72708 c 0,5.30624 4.29912,9.61518 9.58778,9.61518 3.14591,0 5.83558,-1.59567 7.66482,-3.88038 2.50876,-3.13405 6.06465,-5.7348 18.38382,-5.7348 H 238.91861 c 12.31985,0 15.84707,2.60075 18.35583,5.7348 1.82924,2.28471 4.54679,3.8518 7.69303,3.8518 5.28902,0 9.55979,-4.2807 9.55979,-9.5866"
     style="fill:none;stroke:#00ff00;stroke-width:0.2459067;stroke-linecap:butt;stroke-linejoin:miter;stroke-dasharray:none"
     id="path4085"
     inkscape:connector-curvature="0" />
  <path
     d="m 99.510531,64.745271 h 1.071379 v 7.077434 h 3.85547 v 0.909606 h -4.926509 v -7.98704 z m 0,0 z"
     style="fill:#000000;fill-rule:evenodd;stroke-width:1.13845682"
     id="path4087"
     inkscape:connector-curvature="0" />
  <path
     d="m 108.45676,65.809813 -1.45314,3.974939 h 2.91138 z m -0.60449,-1.064542 h 1.21442 l 3.01737,7.98704 h -1.11377 l -0.72113,-2.049044 h -3.56881 l -0.72102,2.049044 h -1.12953 l 3.02281,-7.98704 z m 0,0 z"
     style="fill:#000000;fill-rule:evenodd;stroke-width:1.13845682"
     id="path4089"
     inkscape:connector-curvature="0" />
  <path
     d="m 113.23478,64.745271 h 1.44249 l 3.51067,6.68169 v -6.68169 h 1.03952 v 7.98704 h -1.44248 l -3.51067,-6.681576 v 6.681576 h -1.03953 z"
     style="fill:#000000;fill-rule:evenodd;stroke-width:1.13845682"
     id="path4091"
     inkscape:connector-curvature="0" />
  <path
     d="m 159.34505,54.811752 h 1.07649 v 4.852072 c 0,0.85575 0.15392,1.472751 0.46144,1.850886 0.30752,0.374477 0.80592,0.561772 1.49554,0.561772 0.68587,0 1.18257,-0.187295 1.49009,-0.561772 0.30752,-0.378135 0.46145,-0.995136 0.46145,-1.850886 v -4.852072 h 1.07648 v 4.985969 c 0,1.041445 -0.25617,1.827788 -0.76897,2.359259 -0.50905,0.531357 -1.26226,0.797093 -2.25905,0.797093 -1.00054,0 -1.75715,-0.265736 -2.2696,-0.797093 -0.50906,-0.531471 -0.76353,-1.317814 -0.76353,-2.359259 v -4.985969 z m 0,0 z"
     style="fill:#000000;fill-rule:evenodd;stroke-width:1.13845682"
     id="path4093"
     inkscape:connector-curvature="0" />
  <path
     d="m 172.16795,55.073714 v 1.053794 c -0.40681,-0.195986 -0.79027,-0.342346 -1.15072,-0.438623 -0.36057,-0.09628 -0.70878,-0.144532 -1.04475,-0.144532 -0.58318,0 -1.03408,0.114231 -1.35214,0.342347 -0.31478,0.228001 -0.4721,0.552738 -0.4721,0.973753 0,0.35298 0.10427,0.620431 0.31295,0.802237 0.21208,0.178492 0.61164,0.322679 1.19868,0.433478 l 0.64677,0.133897 c 0.79911,0.153221 1.38785,0.424445 1.76587,0.812985 0.38165,0.385111 0.57253,0.902289 0.57253,1.551419 0,0.773995 -0.25787,1.36058 -0.77406,1.759869 -0.5128,0.399518 -1.26567,0.599048 -2.25906,0.599048 -0.37485,0 -0.77407,-0.04277 -1.19856,-0.128408 -0.42075,-0.08553 -0.85726,-0.212223 -1.30975,-0.379966 v -1.112795 c 0.43469,0.246068 0.86089,0.431648 1.2779,0.556284 0.41735,0.124863 0.82711,0.187295 1.23041,0.187295 0.61163,0 1.08373,-0.12109 1.41585,-0.363614 0.33211,-0.242638 0.4984,-0.588414 0.4984,-1.038015 0,-0.392314 -0.12004,-0.699099 -0.36057,-0.920354 -0.23667,-0.221141 -0.62762,-0.386826 -1.17192,-0.497511 l -0.65233,-0.128408 c -0.799,-0.160424 -1.37719,-0.411982 -1.7339,-0.754327 -0.35717,-0.342347 -0.53569,-0.818474 -0.53569,-1.42827 0,-0.705961 0.24562,-1.262587 0.73711,-1.66908 0.49499,-0.406493 1.17543,-0.609682 2.04188,-0.609682 0.3711,0 0.74946,0.03373 1.13497,0.101766 0.3855,0.06757 0.77961,0.169458 1.18257,0.305069 z m 0,0 z"
     style="fill:#000000;fill-rule:evenodd;stroke-width:1.13845682"
     id="path4095"
     inkscape:connector-curvature="0" />
  <path
     d="m 175.38674,58.984393 v 2.926176 h 1.71827 c 0.57638,0 1.00224,-0.119375 1.2779,-0.358583 0.27918,-0.242524 0.41905,-0.611397 0.41905,-1.107306 0,-0.499341 -0.13953,-0.8665 -0.41905,-1.102162 -0.27566,-0.238751 -0.70186,-0.358468 -1.2779,-0.358468 h -1.71827 m 0,-3.284417 v 2.407169 h 1.58553 c 0.52334,0 0.9119,-0.098 1.16683,-0.294321 0.25786,-0.199759 0.3872,-0.50277 0.3872,-0.909263 0,-0.403063 -0.129,-0.704245 -0.3872,-0.904119 -0.25459,-0.199758 -0.64349,-0.299466 -1.16683,-0.299466 z m -1.07104,-0.887881 h 2.7366 c 0.81657,0 1.44588,0.171172 1.88783,0.513519 0.44207,0.342231 0.66299,0.829108 0.66299,1.460287 0,0.488591 -0.11324,0.877132 -0.33937,1.166308 -0.22602,0.288833 -0.55858,0.469039 -0.99714,0.540389 0.52685,0.114231 0.93525,0.352981 1.22497,0.716709 0.29358,0.360298 0.44025,0.811271 0.44025,1.353375 0,0.713278 -0.24042,1.264416 -0.72102,1.652956 -0.48094,0.388885 -1.16511,0.583155 -2.05242,0.583155 h -2.84269 v -7.987041 z m 0,0 z"
     style="fill:#000000;fill-rule:evenodd;stroke-width:1.13845682"
     id="path4097"
     inkscape:connector-curvature="0" />
  <path
     d="m 218.40029,54.811752 h 1.07649 v 4.852072 c 0,0.85575 0.15393,1.472751 0.46144,1.850886 0.30752,0.374477 0.80592,0.561772 1.49554,0.561772 0.68587,0 1.18258,-0.187295 1.49009,-0.561772 0.30752,-0.378135 0.46144,-0.995136 0.46144,-1.850886 v -4.852072 h 1.07649 v 4.985969 c 0,1.041445 -0.25618,1.827788 -0.76897,2.359259 -0.50894,0.531357 -1.26225,0.797093 -2.25905,0.797093 -1.00054,0 -1.75714,-0.265736 -2.2696,-0.797093 -0.50894,-0.531471 -0.76353,-1.317814 -0.76353,-2.359259 v -4.985969 z m 0,0 z"
     style="fill:#000000;fill-rule:evenodd;stroke-width:1.13845682"
     id="path4099"
     inkscape:connector-curvature="0" />
  <path
     d="m 231.2232,55.073714 v 1.053794 c -0.40682,-0.195986 -0.79028,-0.342346 -1.15073,-0.438623 -0.36057,-0.09628 -0.70878,-0.144532 -1.04475,-0.144532 -0.58317,0 -1.03409,0.114231 -1.35214,0.342347 -0.31478,0.228001 -0.4721,0.552738 -0.4721,0.973753 0,0.35298 0.1044,0.620431 0.31296,0.802237 0.21207,0.178492 0.61163,0.322679 1.19866,0.433478 l 0.6469,0.133897 c 0.799,0.153221 1.38773,0.424445 1.76575,0.812985 0.38165,0.385111 0.57253,0.902289 0.57253,1.551419 0,0.773995 -0.25786,1.36058 -0.77407,1.759869 -0.51279,0.399518 -1.26566,0.599048 -2.25904,0.599048 -0.37486,0 -0.77407,-0.04277 -1.19857,-0.128408 -0.42075,-0.08553 -0.85726,-0.212223 -1.30975,-0.379966 v -1.112795 c 0.43469,0.246068 0.86088,0.431648 1.2779,0.556284 0.41735,0.124863 0.82711,0.187295 1.23042,0.187295 0.61162,0 1.08373,-0.12109 1.41584,-0.363614 0.33211,-0.242638 0.49839,-0.588414 0.49839,-1.038015 0,-0.392314 -0.12003,-0.699099 -0.36055,-0.920354 -0.23668,-0.221141 -0.62762,-0.386826 -1.17192,-0.497511 l -0.65233,-0.128408 c -0.799,-0.160424 -1.3772,-0.411982 -1.73392,-0.754327 -0.35716,-0.342347 -0.53568,-0.818474 -0.53568,-1.42827 0,-0.705961 0.24563,-1.262587 0.73711,-1.66908 0.495,-0.406493 1.17544,-0.609682 2.04187,-0.609682 0.37112,0 0.74947,0.03373 1.13497,0.101766 0.3855,0.06757 0.77962,0.169458 1.18259,0.305069 z m 0,0 z"
     style="fill:#000000;fill-rule:evenodd;stroke-width:1.13845682"
     id="path4101"
     inkscape:connector-curvature="0" />
  <path
     d="m 234.44198,58.984393 v 2.926176 h 1.71827 c 0.57638,0 1.00224,-0.119375 1.27802,-0.358583 0.27907,-0.242524 0.41893,-0.611397 0.41893,-1.107306 0,-0.499341 -0.13953,-0.8665 -0.41893,-1.102162 -0.27578,-0.238751 -0.70198,-0.358468 -1.27802,-0.358468 h -1.71827 m 0,-3.284417 v 2.407169 h 1.58554 c 0.52333,0 0.91201,-0.098 1.16682,-0.294321 0.25786,-0.199759 0.3872,-0.50277 0.3872,-0.909263 0,-0.403063 -0.12899,-0.704245 -0.3872,-0.904119 -0.25447,-0.199758 -0.64349,-0.299466 -1.16682,-0.299466 z m -1.07126,-0.887881 h 2.73648 c 0.81657,0 1.446,0.171172 1.88795,0.513519 0.44195,0.342231 0.66287,0.829108 0.66287,1.460287 0,0.488591 -0.11323,0.877132 -0.33937,1.166308 -0.22602,0.288833 -0.55859,0.469039 -0.99714,0.540389 0.52685,0.114231 0.93525,0.352981 1.22497,0.716709 0.29358,0.360298 0.44026,0.811271 0.44026,1.353375 0,0.713278 -0.24042,1.264416 -0.72102,1.652956 -0.48095,0.388885 -1.16512,0.583155 -2.05242,0.583155 h -2.84258 v -7.987041 z m 0,0 z"
     style="fill:#000000;fill-rule:evenodd;stroke-width:1.13845682"
     id="path4103"
     inkscape:connector-curvature="0" />
  <path
     d="m 84.294261,76.409385 h 50.263049 c 0.81896,-6.86e-4 1.4825,0.668684 1.4825,1.494133 l -6.8e-4,44.276052 c 6.8e-4,0.82499 -0.66286,1.49447 -1.48114,1.49447 l -50.263729,3.4e-4 c -0.81782,-3.4e-4 -1.48148,-0.66982 -1.48148,-1.49516 l -3.4e-4,-44.275016 c 3.4e-4,-0.826135 0.664,-1.495505 1.48216,-1.495505 z"
     style="fill:none;stroke:#ff0000;stroke-width:0.2459067;stroke-linecap:butt;stroke-linejoin:round;stroke-dasharray:none"
     id="path4105"
     inkscape:connector-curvature="0" />
  <path
     d="m 146.45936,65.819532 h 46.3966 c 1.77154,-6.86e-4 3.20756,1.447938 3.20756,3.234334 l -6.9e-4,51.644944 c 6.9e-4,1.78605 -1.43533,3.23468 -3.2062,3.23468 l -46.39727,3.4e-4 c -1.77029,-3.4e-4 -3.20632,-1.44897 -3.20632,-3.23536 l -6.8e-4,-51.643918 c 6.8e-4,-1.787082 1.43671,-3.235706 3.20768,-3.235706 z"
     style="fill:none;stroke:#00ff00;stroke-width:0.2459067;stroke-linecap:butt;stroke-linejoin:round;stroke-dasharray:none"
     id="path4107"
     inkscape:connector-curvature="0" />
  <path
     d="m 205.58669,65.819532 h 46.39705 c 1.77119,-6.86e-4 3.20723,1.447938 3.20723,3.234334 l -3.5e-4,51.644944 c 3.5e-4,1.78605 -1.43569,3.23468 -3.20654,3.23468 l -46.39739,3.4e-4 c -1.77018,-3.4e-4 -3.2062,-1.44897 -3.2062,-3.23536 l -6.8e-4,-51.643918 c 6.8e-4,-1.787082 1.4367,-3.235706 3.20757,-3.235706 z"
     style="fill:none;stroke:#ff0000;stroke-width:0.2459067;stroke-linecap:butt;stroke-linejoin:round;stroke-dasharray:none"
     id="path4109"
     inkscape:connector-curvature="0" />
  <path
     d="m 158.27061,87.755281 c -2.36912,0 -4.28948,-1.939275 -4.28948,-4.331693 0,-2.392305 1.92036,-4.331579 4.28948,-4.331579 2.36924,0 4.28961,1.939274 4.28961,4.331579 0,2.392418 -1.92037,4.331693 -4.28961,4.331693 z"
     style="fill:none;stroke:#ff0000;stroke-width:0.2459067;stroke-linecap:butt;stroke-linejoin:miter;stroke-dasharray:none"
     id="path4111"
     inkscape:connector-curvature="0" />
  <path
     d="m 157.46674,92.993492 c -4.88163,-0.411752 -8.71624,-4.539113 -8.71624,-9.570247 0,-5.304075 4.26251,-9.603979 9.52045,-9.603979 5.25795,0 9.52046,4.299904 9.52046,9.603979 0,5.030792 -3.83416,9.157809 -8.71556,9.570247"
     style="fill:none;stroke:#ff0000;stroke-width:0.2459067;stroke-linecap:butt;stroke-linejoin:miter;stroke-dasharray:none"
     id="path4113"
     inkscape:connector-curvature="0" />
  <path
     d="m 181.04459,87.755281 c -2.36913,0 -4.28949,-1.939275 -4.28949,-4.331693 0,-2.392305 1.92036,-4.331579 4.28949,-4.331579 2.36923,0 4.2896,1.939274 4.2896,4.331579 0,2.392418 -1.92037,4.331693 -4.2896,4.331693 z"
     style="fill:none;stroke:#ff0000;stroke-width:0.2459067;stroke-linecap:butt;stroke-linejoin:miter;stroke-dasharray:none"
     id="path4115"
     inkscape:connector-curvature="0" />
  <path
     d="m 180.24071,92.993492 c -4.88163,-0.411752 -8.71624,-4.539113 -8.71624,-9.570247 0,-5.304075 4.26251,-9.603979 9.52045,-9.603979 5.25795,0 9.52046,4.299904 9.52046,9.603979 0,5.030792 -3.83416,9.157809 -8.71556,9.570247"
     style="fill:none;stroke:#ff0000;stroke-width:0.2459067;stroke-linecap:butt;stroke-linejoin:miter;stroke-dasharray:none"
     id="path4117"
     inkscape:connector-curvature="0" />
  <path
     d="m 158.27061,110.6952 c -2.36912,0 -4.28948,-1.93928 -4.28948,-4.3317 0,-2.3923 1.92036,-4.33157 4.28948,-4.33157 2.36924,0 4.28961,1.93927 4.28961,4.33157 0,2.39242 -1.92037,4.3317 -4.28961,4.3317 z"
     style="fill:none;stroke:#ff0000;stroke-width:0.2459067;stroke-linecap:butt;stroke-linejoin:miter;stroke-dasharray:none"
     id="path4119"
     inkscape:connector-curvature="0" />
  <path
     d="m 157.46674,115.93375 c -4.88163,-0.41164 -8.71624,-4.53911 -8.71624,-9.57025 0,-5.30407 4.26251,-9.603975 9.52045,-9.603975 5.25795,0 9.52046,4.299905 9.52046,9.603975 0,5.0308 -3.83416,9.15793 -8.71556,9.57025"
     style="fill:none;stroke:#ff0000;stroke-width:0.2459067;stroke-linecap:butt;stroke-linejoin:miter;stroke-dasharray:none"
     id="path4121"
     inkscape:connector-curvature="0" />
  <path
     d="m 181.04459,110.6952 c -2.36913,0 -4.28949,-1.93928 -4.28949,-4.3317 0,-2.3923 1.92036,-4.33157 4.28949,-4.33157 2.36923,0 4.2896,1.93927 4.2896,4.33157 0,2.39242 -1.92037,4.3317 -4.2896,4.3317 z"
     style="fill:none;stroke:#ff0000;stroke-width:0.2459067;stroke-linecap:butt;stroke-linejoin:miter;stroke-dasharray:none"
     id="path4123"
     inkscape:connector-curvature="0" />
  <path
     d="m 180.24071,115.93375 c -4.88163,-0.41164 -8.71624,-4.53911 -8.71624,-9.57025 0,-5.30407 4.26251,-9.603975 9.52045,-9.603975 5.25795,0 9.52046,4.299905 9.52046,9.603975 0,5.0308 -3.83416,9.15793 -8.71556,9.57025"
     style="fill:none;stroke:#ff0000;stroke-width:0.2459067;stroke-linecap:butt;stroke-linejoin:miter;stroke-dasharray:none"
     id="path4125"
     inkscape:connector-curvature="0" />
  <g
     id="Layer1010"
     transform="matrix(1.0574252,0,0,1.0403421,767.21524,42.829468)" />
  <g
     id="Layer1011"
     transform="matrix(1.0574252,0,0,1.0403421,767.21524,42.829468)" />
  <path
     d="m 160.76452,151.72495 h 105.33915 c 1.71634,-0.003 3.10697,2.2108 3.10697,4.93993 l -0.001,146.38607 c 0.001,2.72762 -1.38923,4.94107 -3.10411,4.94107 l -105.34059,10e-4 c -1.71395,-10e-4 -3.10482,-2.21459 -3.10482,-4.94331 l -7.4e-4,-146.38259 c 7.2e-4,-2.7314 1.39159,-4.94446 3.10625,-4.94446 z"
     style="fill:none;stroke:#ff0000;stroke-width:0.64730114;stroke-linecap:butt;stroke-linejoin:round;stroke-dasharray:none"
     id="path4105-4"
     inkscape:connector-curvature="0" />
  <path
     d="m 152.6166,0.13850694 h 98.53045 c 1.60538,-4.42e-4 2.90612,0.430115 2.90612,0.96106596 l -0.001,28.4795631 c 0.001,0.53066 -1.29942,0.961289 -2.90348,0.961289 l -98.53176,2.2e-4 c -1.60316,-2.2e-4 -2.90414,-0.430849 -2.90414,-0.961729 l -6.6e-4,-28.4789011 c 6.6e-4,-0.53139296 1.30164,-0.96194996 2.90547,-0.96194996 z"
     style="fill:none;stroke:#ff0000;stroke-width:0.27612987;stroke-linecap:butt;stroke-linejoin:round;stroke-dasharray:none"
     id="path4105-0"
     inkscape:connector-curvature="0" />
  <path
     d="m 425.81171,11.962475 h 117.95744 c 1.92191,-6.4e-4 3.47911,0.623118 3.47911,1.392321 l -0.002,41.259041 c 0.002,0.768779 -1.55562,1.392643 -3.47595,1.392643 l -117.95902,3.18e-4 c -1.91926,-3.18e-4 -3.47675,-0.624182 -3.47675,-1.393279 l -7.8e-4,-41.258085 c 7.8e-4,-0.769841 1.55827,-1.393599 3.47833,-1.393599 z"
     style="fill:none;stroke:#ff0000;stroke-width:0.36365011;stroke-linecap:butt;stroke-linejoin:round;stroke-dasharray:none"
     id="path4105-7"
     inkscape:connector-curvature="0" />
  <text
     xml:space="preserve"
     style="font-style:normal;font-weight:normal;font-size:18.58268929px;line-height:1.25;font-family:sans-serif;letter-spacing:0px;word-spacing:0px;fill:#000000;fill-opacity:1;stroke:none;stroke-width:0.46456721"
     x="174.95049"
     y="48.12693"
     id="text4190"
     transform="scale(1.0252206,0.97539983)"><tspan
       sodipodi:role="line"
       id="tspan4188"
       x="174.95049"
       y="48.12693"
       style="stroke-width:0.46456721">RFID</tspan></text>
  <text
     xml:space="preserve"
     style="font-style:normal;font-weight:normal;font-size:16.75374794px;line-height:1.25;font-family:sans-serif;letter-spacing:0px;word-spacing:0px;fill:#000000;fill-opacity:1;stroke:none;stroke-width:0.41884369"
     x="181.01628"
     y="332.25037"
     id="text4194"
     transform="scale(1.0150574,0.98516596)"><tspan
       sodipodi:role="line"
       id="tspan4192"
       x="181.01628"
       y="332.25037"
       style="stroke-width:0.41884369">KEYPAD</tspan></text>
  <text
     xml:space="preserve"
     style="font-style:normal;font-weight:normal;font-size:20.33319473px;line-height:1.25;font-family:sans-serif;letter-spacing:0px;word-spacing:0px;fill:#000000;fill-opacity:1;stroke:none;stroke-width:0.50832987"
     x="481.6308"
     y="77.821854"
     id="text4198"
     transform="scale(0.95636974,1.0456207)"><tspan
       sodipodi:role="line"
       id="tspan4196"
       x="481.6308"
       y="77.821854"
       style="stroke-width:0.50832987">GPS</tspan></text>
  <text
     xml:space="preserve"
     style="font-style:normal;font-weight:normal;font-size:22.5px;line-height:1.25;font-family:'Times New Roman';letter-spacing:0px;word-spacing:0px;fill:#000000;fill-opacity:1;stroke:none;stroke-width:0.56249839;-inkscape-font-specification:'Times New Roman, Normal';font-stretch:normal;font-variant:normal;text-anchor:start;text-align:start;writing-mode:lr;font-variant-ligatures:normal;font-variant-caps:normal;font-variant-numeric:normal;font-feature-settings:normal;"
     x="77.757111"
     y="294.83792"
     id="text4204"
     transform="scale(0.83025386,1.2044509)"><tspan
       sodipodi:role="line"
       id="tspan4202"
       x="77.757111"
       y="294.83792"
       style="stroke-width:0.56249839;-inkscape-font-specification:'Times New Roman, Normal';font-family:'Times New Roman';font-weight:normal;font-style:normal;font-stretch:normal;font-variant:normal;font-size:22.5px;text-anchor:start;text-align:start;writing-mode:lr;font-variant-ligatures:normal;font-variant-caps:normal;font-variant-numeric:normal;font-feature-settings:normal;">Parts Crib Hub</tspan></text>
  <path
     d="m 390.26782,207.27295 c 3.93044,0 7.11873,3.07691 7.11873,6.86999 0,3.79309 -3.18829,6.86995 -7.11873,6.86995 -3.93045,0 -7.11878,-3.07686 -7.11878,-6.86995 0,-3.79308 3.18833,-6.86999 7.11878,-6.86999 z"
     style="fill:none;stroke:#ff0000;stroke-width:0.08955318;stroke-linecap:butt;stroke-linejoin:miter;stroke-dasharray:none"
     id="path3870-7"
     inkscape:connector-curvature="0" />
  <path
     d="m 388.18528,303.90277 c 3.93044,0 7.11873,3.07691 7.11873,6.86999 0,3.79309 -3.18829,6.86995 -7.11873,6.86995 -3.93045,0 -7.11878,-3.07686 -7.11878,-6.86995 0,-3.79308 3.18833,-6.86999 7.11878,-6.86999 z"
     style="fill:none;stroke:#ff0000;stroke-width:0.08955318;stroke-linecap:butt;stroke-linejoin:miter;stroke-dasharray:none"
     id="path3870-7-0"
     inkscape:connector-curvature="0" />
  <path
     d="m 526.46586,301.40371 c 3.93044,0 7.11873,3.07691 7.11873,6.86999 0,3.79309 -3.18829,6.86995 -7.11873,6.86995 -3.93045,0 -7.11878,-3.07686 -7.11878,-6.86995 0,-3.79308 3.18833,-6.86999 7.11878,-6.86999 z"
     style="fill:none;stroke:#ff0000;stroke-width:0.08955318;stroke-linecap:butt;stroke-linejoin:miter;stroke-dasharray:none"
     id="path3870-7-0-5"
     inkscape:connector-curvature="0" />
  <path
     d="m 524.79983,205.60692 c 3.93044,0 7.11873,3.07691 7.11873,6.86999 0,3.7931 -3.18829,6.86996 -7.11873,6.86996 -3.93045,0 -7.11878,-3.07686 -7.11878,-6.86996 0,-3.79308 3.18833,-6.86999 7.11878,-6.86999 z"
     style="fill:none;stroke:#ff0000;stroke-width:0.08955318;stroke-linecap:butt;stroke-linejoin:miter;stroke-dasharray:none"
     id="path3870-7-0-5-6"
     inkscape:connector-curvature="0" />
</svg>
